<svg width="1043" height="132" viewBox="0 0 1043 132" fill="none" xmlns="http://www.w3.org/2000/svg">
<path d="M617 0H587V132H692V106H617V0Z" fill="#00B5D6"/>
<path d="M792.5 84.6412L745 36.7786V132H715V0H745L792.5 47.8626L840 0H871V132H840V36.7786L792.5 84.6412Z" fill="#00B5D6"/>
<path d="M53.5 0L0 132H32.5L73.5 29L115 132H147.5L93.5 0H53.5Z" fill="#00B5D6"/>
<path d="M223 132L276.5 0L244 -2.84124e-06L203 103L161.5 -1.00536e-05L129 -1.28949e-05L183 132L223 132Z" fill="#00B5D6"/>
<path d="M415 0H289V25.0951H337V131.498L367 132V25.597H415V0Z" fill="#00B5D6"/>
<path d="M564 0H438V26H564V0Z" fill="#00B5D6"/>
<path d="M564 53H438V79H564V53Z" fill="#00B5D6"/>
<path d="M564 106H438V132H564V106Z" fill="#00B5D6"/>
<path d="M948.5 0L895 132H927.5L968.5 29L1010 132H1042.5L988.5 0H948.5Z" fill="#00B5D6"/>
</svg>
