<?xml version="1.0" encoding="utf-8"?>
<!-- Generator: Adobe Illustrator 19.1.0, SVG Export Plug-In . SVG Version: 6.00 Build 0)  -->
<svg version="1.1" id="Livello_1" xmlns="http://www.w3.org/2000/svg" xmlns:xlink="http://www.w3.org/1999/xlink" x="0px" y="0px"
	 viewBox="763.8 140 1775.2 501" style="enable-background:new 763.8 140 1775.2 501;" xml:space="preserve">
<style type="text/css">
	.st0{opacity:1;}
	.st1{fill:url(#SVGID_1_);}
	.st2{fill:url(#SVGID_2_);}
	.st3{fill:url(#SVGID_3_);}
	.st4{fill:url(#SVGID_4_);}
	.st5{fill:url(#SVGID_5_);}
	.st6{fill:url(#SVGID_6_);}
	.st7{fill:url(#SVGID_7_);}
	.st8{fill:url(#SVGID_8_);}
	.st9{fill:url(#SVGID_9_);}
	.st10{fill:url(#SVGID_10_);}
	.st11{fill:url(#SVGID_11_);}
	.st12{fill:url(#SVGID_12_);}
	.st13{fill:url(#SVGID_13_);}
	.st14{fill:url(#SVGID_14_);}
	.st15{fill:url(#SVGID_15_);}
	.st16{fill:url(#SVGID_16_);}
	.st17{fill:url(#SVGID_17_);}
	.st18{fill:url(#SVGID_18_);}
	.st19{fill:url(#SVGID_19_);}
	.st20{fill:url(#SVGID_20_);}
	.st21{fill:url(#SVGID_21_);}
	.st22{fill:url(#SVGID_22_);}
	.st23{fill:url(#SVGID_23_);}
	.st24{fill:url(#SVGID_24_);}
	.st25{fill:url(#SVGID_25_);}
	.st26{fill:url(#SVGID_26_);}
	.st27{fill:url(#SVGID_27_);}
	.st28{fill:url(#SVGID_28_);}
	.st29{fill:url(#SVGID_29_);}
	.st30{fill:url(#SVGID_30_);}
	.st31{fill:url(#SVGID_31_);}
	.st32{fill:url(#SVGID_32_);}
	.st33{fill:url(#SVGID_33_);}
	.st34{fill:url(#SVGID_34_);}
	.st35{fill:url(#SVGID_35_);}
	.st36{fill:url(#SVGID_36_);}
	.st37{fill:url(#SVGID_37_);}
	.st38{fill:url(#SVGID_38_);}
	.st39{fill:url(#SVGID_39_);}
	.st40{fill:url(#SVGID_40_);}
	.st41{fill:url(#SVGID_41_);}
	.st42{fill:url(#SVGID_42_);}
	.st43{fill:url(#SVGID_43_);}
	.st44{fill:url(#SVGID_44_);}
	.st45{fill:url(#SVGID_45_);}
	.st46{fill:url(#SVGID_46_);}
	.st47{fill:url(#SVGID_47_);}
	.st48{fill:url(#SVGID_48_);}
	.st49{fill:url(#SVGID_49_);}
	.st50{fill:url(#SVGID_50_);}
	.st51{fill:url(#SVGID_51_);}
	.st52{fill:url(#SVGID_52_);}
	.st53{fill:url(#SVGID_53_);}
	.st54{fill:url(#SVGID_54_);}
	.st55{fill:url(#SVGID_55_);}
	.st56{fill:url(#SVGID_56_);}
	.st57{fill:url(#SVGID_57_);}
	.st58{fill:url(#SVGID_58_);}
	.st59{fill:url(#SVGID_59_);}
	.st60{fill:url(#SVGID_60_);}
	.st61{fill:url(#SVGID_61_);}
	.st62{fill:url(#SVGID_62_);}
	.st63{fill:url(#SVGID_63_);}
	.st64{fill:url(#SVGID_64_);}
	.st65{fill:url(#SVGID_65_);}
	.st66{fill:url(#SVGID_66_);}
	.st67{fill:url(#SVGID_67_);}
	.st68{fill:url(#SVGID_68_);}
	.st69{fill:url(#SVGID_69_);}
	.st70{fill:url(#SVGID_70_);}
	.st71{fill:url(#SVGID_71_);}
	.st72{fill:url(#SVGID_72_);}
	.st73{fill:url(#SVGID_73_);}
	.st74{fill:url(#SVGID_74_);}
</style>
<g class="st0">
	<g>
		
			<linearGradient id="SVGID_1_" gradientUnits="userSpaceOnUse" x1="1057.9226" y1="780.2275" x2="1058.6091" y2="780.2275" gradientTransform="matrix(2075.5217 0 0 -499.1948 -2194743 389872.8125)">
			<stop  offset="0" style="stop-color:#307FE2;stop-opacity:0.3"/>
			<stop  offset="0.25" style="stop-color:#307FE2;stop-opacity:0.1"/>
			<stop  offset="0.5" style="stop-color:#307FE2;stop-opacity:0.3"/>
			<stop  offset="0.75" style="stop-color:#307FE2;stop-opacity:0.1"/>
			<stop  offset="1" style="stop-color:#307FE2;stop-opacity:0.3"/>
		</linearGradient>
		<path class="st1" d="M1192,637.1c-91.6,0-181.3-21.3-259.8-61.8C852.1,534,781.3,471.5,727.7,394.8
			c-53.6-76.8-87.8-164.7-99-254.2l0.5-0.1c11.1,89.4,45.3,177.2,98.9,253.9c53.5,76.7,124.2,139.1,204.3,180.4
			c80.1,41.3,171.9,62.7,265.5,61.7c93.5-0.9,184.9-24.1,264.2-66.9c85.5-46.3,158.3-114.3,228.7-180.1
			c74.6-69.7,151.8-141.8,244-187.8c55.9-27.9,118.9-47,187.4-56.7c61.6-8.7,128-10,197.4-3.7c131.7,11.9,260.4,48.1,384.9,83.2
			l-0.1,0.5c-124.5-35.1-253.2-71.3-384.8-83.2c-69.3-6.3-135.7-5-197.3,3.7c-68.5,9.7-131.5,28.7-187.3,56.6
			c-92.1,46-169.3,118.1-243.9,187.7c-70.4,65.8-143.3,133.8-228.9,180.2c-79.4,42.9-170.8,66.1-264.4,67
			C1196,637.1,1194,637.1,1192,637.1z"/>
	</g>
	<g>
		
			<linearGradient id="SVGID_2_" gradientUnits="userSpaceOnUse" x1="1057.9227" y1="780.2217" x2="1058.608" y2="780.2217" gradientTransform="matrix(2079.2659 0 0 -488.6971 -2198706.75 381678.0625)">
			<stop  offset="0" style="stop-color:#307FE2;stop-opacity:0.3"/>
			<stop  offset="0.25" style="stop-color:#307FE2;stop-opacity:0.1"/>
			<stop  offset="0.5" style="stop-color:#307FE2;stop-opacity:0.3"/>
			<stop  offset="0.75" style="stop-color:#307FE2;stop-opacity:0.1"/>
			<stop  offset="1" style="stop-color:#307FE2;stop-opacity:0.3"/>
		</linearGradient>
		<path class="st2" d="M1198.5,630.6c-30.1,0-60.3-2.3-90.4-6.8c-60.6-9.1-119.2-27.7-173.9-55.3c-54.5-27.8-104-63.9-147-107.4
			c-87.4-87.8-144.5-199.3-160.9-313.8l0.5-0.1c16.3,114.4,73.4,225.8,160.7,313.5c43,43.4,92.5,79.5,146.9,107.3
			c54.7,27.6,113.2,46.2,173.8,55.3c123.2,18.7,249.3-1.4,355.1-56.5c86.5-45,160.4-112.1,232-177
			c74.4-67.5,151.4-137.3,242.7-182.6c21.2-10.5,43.3-19.8,65.6-27.6c48.4-16.9,101.1-28.4,156.7-34c51.3-5.2,105.5-5.6,161.1-1
			c5.6,0.4,11.2,0.9,16.6,1.5c120.5,11.6,237.9,43.1,367.9,79.9l-0.1,0.5c-129.9-36.8-247.3-68.3-367.8-79.9
			c-5.5-0.5-11.1-1-16.6-1.5c-55.6-4.5-109.8-4.2-161,1c-55.5,5.6-108.2,17.1-156.6,34c-22.3,7.8-44.4,17.1-65.6,27.6
			c-91.2,45.3-168.2,115-242.5,182.5c-71.6,64.9-145.5,132-232.1,177.1C1383.5,609,1291.8,630.6,1198.5,630.6z"/>
	</g>
	<g>
		
			<linearGradient id="SVGID_3_" gradientUnits="userSpaceOnUse" x1="1057.9229" y1="780.2158" x2="1058.6069" y2="780.2158" gradientTransform="matrix(2082.958 0 0 -478.6239 -2202615.5 373814.8438)">
			<stop  offset="0" style="stop-color:#307FE2;stop-opacity:0.3"/>
			<stop  offset="0.25" style="stop-color:#307FE2;stop-opacity:0.1"/>
			<stop  offset="0.5" style="stop-color:#307FE2;stop-opacity:0.3"/>
			<stop  offset="0.75" style="stop-color:#307FE2;stop-opacity:0.1"/>
			<stop  offset="1" style="stop-color:#307FE2;stop-opacity:0.3"/>
		</linearGradient>
		<path class="st3" d="M1205.1,624.5c-31.7,0-63.5-2.5-95.2-7.4c-60.5-9.4-118.9-28-173.7-55.2c-54.4-27.4-104.1-62.8-147.7-105.3
			C700.1,370.7,641.6,263.3,623.9,154l0.5-0.1c17.7,109.2,76.2,216.5,164.5,302.3c43.6,42.5,93.2,77.8,147.6,105.2
			c54.7,27.2,113.1,45.8,173.6,55.2c122.8,19.3,248.7,0.7,354.5-52.3c87.4-43.8,162.5-110,235.2-174
			c74.2-65.4,150.9-133,241.3-177.5c21.2-10.4,43.2-19.7,65.5-27.5c48.5-17,101.1-28.7,156.2-34.8c51.3-5.7,105.4-6.5,160.7-2.6
			c5.5,0.4,11.1,0.9,16.6,1.3c124.9,11,244.9,43.3,367.2,78.3l-0.1,0.5c-122.2-35-242.3-67.3-367.1-78.3c-5.5-0.5-11.1-0.9-16.6-1.3
			c-55.2-4-109.3-3.1-160.6,2.6c-55.1,6.1-107.6,17.8-156.1,34.8c-22.3,7.8-44.3,17.1-65.4,27.5c-90.3,44.5-167,112.1-241.2,177.4
			c-72.7,64-147.9,130.2-235.3,174.1C1386.2,604.1,1296.4,624.5,1205.1,624.5z"/>
	</g>
	<g>
		
			<linearGradient id="SVGID_4_" gradientUnits="userSpaceOnUse" x1="1057.923" y1="780.2097" x2="1058.606" y2="780.2097" gradientTransform="matrix(2086.5969 0 0 -468.5905 -2206467.75 365982.5312)">
			<stop  offset="0" style="stop-color:#307FE2;stop-opacity:0.3"/>
			<stop  offset="0.25" style="stop-color:#307FE2;stop-opacity:0.1"/>
			<stop  offset="0.5" style="stop-color:#307FE2;stop-opacity:0.3"/>
			<stop  offset="0.75" style="stop-color:#307FE2;stop-opacity:0.1"/>
			<stop  offset="1" style="stop-color:#307FE2;stop-opacity:0.3"/>
		</linearGradient>
		<path class="st4" d="M1212.1,618.3c-33.4,0-67-2.7-100.4-8.1c-60.3-9.6-118.7-28.1-173.5-55c-54.3-26.9-104.2-61.6-148.4-103.1
			c-43.9-41-80.7-87-109.6-136.5c-29.4-50.5-49.2-102.7-58.8-155l0.5-0.1c9.6,52.3,29.4,104.4,58.8,154.8
			c28.8,49.5,65.7,95.4,109.5,136.4c44.1,41.4,94,76.1,148.2,103c54.8,26.8,113.1,45.3,173.4,54.9c60.5,9.8,121.6,10.7,181.5,2.7
			c61.2-8.1,119.2-25.2,172.4-50.9c88.5-42.6,164.9-107.9,238.8-171.1c73.9-63.2,150.4-128.5,239.8-172.3
			c21.2-10.3,43.2-19.6,65.5-27.4c48.4-17.2,100.7-29.2,155.5-35.7c51.2-6.1,105.1-7.4,160-4c5.4,0.3,11,0.7,16.5,1.2
			c128.8,10.2,256.7,44.9,366.6,76.7l-0.1,0.5c-109.8-31.7-237.8-66.5-366.5-76.6c-5.6-0.4-11.1-0.8-16.5-1.2
			c-54.9-3.4-108.7-2.1-159.9,4c-54.8,6.5-107,18.5-155.4,35.7c-22.2,7.9-44.2,17.1-65.4,27.4c-89.3,43.7-165.8,109-239.7,172.2
			C1630.9,454,1554.5,519.3,1466,562c-53.3,25.7-111.4,42.8-172.6,50.9C1266.5,616.5,1239.3,618.3,1212.1,618.3z"/>
	</g>
	<g>
		
			<linearGradient id="SVGID_5_" gradientUnits="userSpaceOnUse" x1="1057.9231" y1="780.2036" x2="1058.605" y2="780.2036" gradientTransform="matrix(2090.3149 0 0 -458.9328 -2210404 358443.75)">
			<stop  offset="0" style="stop-color:#307FE2;stop-opacity:0.3"/>
			<stop  offset="0.25" style="stop-color:#307FE2;stop-opacity:0.1"/>
			<stop  offset="0.5" style="stop-color:#307FE2;stop-opacity:0.3"/>
			<stop  offset="0.75" style="stop-color:#307FE2;stop-opacity:0.1"/>
			<stop  offset="1" style="stop-color:#307FE2;stop-opacity:0.3"/>
		</linearGradient>
		<path class="st5" d="M1219.3,612.4c-35.2,0-70.6-2.9-105.8-8.8c-60.2-9.9-118.5-28.4-173.4-55c-54.2-26.5-104.3-60.4-149-100.9
			c-44.3-40-81.7-84.4-111.2-132.1c-30.2-48.7-50.7-98.6-61-148.3l0.5-0.1c10.3,49.7,30.8,99.5,60.9,148.2
			c29.5,47.6,66.9,92,111.1,131.9c44.7,40.4,94.8,74.3,148.9,100.8c54.8,26.5,113.1,45,173.2,54.9c60.4,10,121.3,11.5,181,4.3
			c61-7.4,119-23.6,172.3-48.2c89.5-41.6,167.2-106,242.3-168.3c73.6-61.1,149.7-124.2,238-167.2c21.2-10.3,43.1-19.5,65.3-27.4
			c48.6-17.3,100.7-29.6,155.1-36.5c51.4-6.5,105-8.3,159.4-5.4c5.4,0.3,11,0.6,16.5,1c125.5,8.8,250.1,41.3,366.1,75l-0.1,0.5
			c-115.9-33.8-240.5-66.2-366-75c-5.5-0.4-11.1-0.7-16.5-1c-54.4-3-108-1.2-159.3,5.4c-54.3,6.9-106.4,19.2-155,36.5
			c-22.2,7.9-44.1,17.1-65.3,27.3c-88.2,42.9-164.3,106.1-237.9,167.1c-75.2,62.4-152.9,126.8-242.5,168.4
			c-53.3,24.7-111.3,40.9-172.4,48.3C1269.8,610.9,1244.6,612.4,1219.3,612.4z"/>
	</g>
	<g>
		
			<linearGradient id="SVGID_6_" gradientUnits="userSpaceOnUse" x1="1057.9233" y1="780.1971" x2="1058.6042" y2="780.1971" gradientTransform="matrix(2094.0061 0 0 -449.1003 -2214311.75 350768.4375)">
			<stop  offset="0" style="stop-color:#307FE2;stop-opacity:0.3"/>
			<stop  offset="0.25" style="stop-color:#307FE2;stop-opacity:0.1"/>
			<stop  offset="0.5" style="stop-color:#307FE2;stop-opacity:0.3"/>
			<stop  offset="0.75" style="stop-color:#307FE2;stop-opacity:0.1"/>
			<stop  offset="1" style="stop-color:#307FE2;stop-opacity:0.3"/>
		</linearGradient>
		<path class="st6" d="M1226.7,606.4c-37,0-74.3-3.2-111.4-9.5c-60-10.2-118.3-28.6-173.2-54.8c-54.1-26-104.4-59.2-149.7-98.7
			c-44.7-39-82.6-81.9-112.8-127.7c-30.9-46.8-52.1-94.5-63.2-141.7l0.5-0.1c11.1,47.1,32.3,94.7,63.1,141.5
			c30.1,45.7,68,88.6,112.7,127.6c45.2,39.4,95.5,72.6,149.5,98.6c54.9,26.1,113.1,44.6,173.1,54.7c60.3,10.3,121.1,12.2,180.6,5.8
			c60.9-6.6,118.8-22,172.1-45.6c90.8-40.3,169.9-104,246.5-165.5c73.1-58.8,148.7-119.6,235.7-161.7c21.2-10.2,43.1-19.4,65.2-27.3
			c48.6-17.4,100.6-30,154.5-37.4c51.3-7,104.8-9.4,158.8-7l16.4,0.9c57.2,3.5,117.5,12.1,184.2,26.4c53.1,11.3,109.1,25.8,181.3,47
			l-0.1,0.5c-72.2-21.1-128.1-35.6-181.3-46.9c-66.7-14.2-126.9-22.8-184.1-26.3l-16.4-0.9c-54-2.4-107.4-0.1-158.7,7
			c-53.9,7.4-105.8,19.9-154.4,37.4c-22.1,7.9-44,17.1-65.2,27.3c-86.9,42-162.5,102.8-235.6,161.6
			c-76.6,61.6-155.7,125.3-246.6,165.6c-53.3,23.6-111.3,39-172.3,45.6C1273.1,605.2,1250,606.4,1226.7,606.4z"/>
	</g>
	<g>
		
			<linearGradient id="SVGID_7_" gradientUnits="userSpaceOnUse" x1="1057.9233" y1="780.1907" x2="1058.6033" y2="780.1907" gradientTransform="matrix(2097.5671 0 0 -439.8007 -2218081.5 343508.6875)">
			<stop  offset="0" style="stop-color:#307FE2;stop-opacity:0.3"/>
			<stop  offset="0.25" style="stop-color:#307FE2;stop-opacity:0.1"/>
			<stop  offset="0.5" style="stop-color:#307FE2;stop-opacity:0.3"/>
			<stop  offset="0.75" style="stop-color:#307FE2;stop-opacity:0.1"/>
			<stop  offset="1" style="stop-color:#307FE2;stop-opacity:0.3"/>
		</linearGradient>
		<path class="st7" d="M1234.5,600.4c-38.9,0-78.2-3.4-117.3-10.3c-59.8-10.5-118-28.9-173-54.8c-54-25.6-104.5-58-150.3-96.4
			c-45.1-37.8-83.6-79.2-114.4-123.1c-31.6-44.9-53.6-90.4-65.4-135l0.5-0.1c11.8,44.6,33.7,89.9,65.3,134.8
			c30.8,43.8,69.2,85.2,114.3,123c45.7,38.4,96.2,70.8,150.1,96.4c54.9,25.8,113.1,44.2,172.9,54.7c60.3,10.6,120.9,13,180.1,7.3
			c60.8-5.9,118.7-20.4,172-42.9c92.1-39.2,172.8-102.1,250.8-163c72.6-56.6,147.6-115.2,233.3-156.4c21.2-10.1,43.1-19.2,65.1-27.2
			c48.7-17.6,100.5-30.5,153.9-38.3c51.4-7.5,104.6-10.3,158.2-8.4c5.6,0.2,11.1,0.5,16.4,0.7c57.4,3,117.6,11.2,183.9,25
			c53.6,11.2,111.1,26.1,181,46.7l-0.1,0.5c-69.9-20.7-127.4-35.5-181-46.7c-66.3-13.9-126.4-22-183.8-25
			c-5.3-0.3-10.8-0.5-16.4-0.7c-53.6-1.9-106.8,1-158.1,8.4c-53.5,7.8-105.2,20.7-153.8,38.3c-22.1,7.9-43.9,17-65.1,27.1
			c-85.6,41.2-160.7,99.7-233.2,156.4c-78,60.9-158.7,123.8-250.9,163c-53.4,22.6-111.3,37-172.1,43
			C1276.6,599.4,1255.6,600.4,1234.5,600.4z"/>
	</g>
	<g>
		
			<linearGradient id="SVGID_8_" gradientUnits="userSpaceOnUse" x1="1057.9236" y1="780.1839" x2="1058.6024" y2="780.1839" gradientTransform="matrix(2101.4138 0 0 -430.2883 -2222154 336083)">
			<stop  offset="0" style="stop-color:#307FE2;stop-opacity:0.3"/>
			<stop  offset="0.25" style="stop-color:#307FE2;stop-opacity:0.1"/>
			<stop  offset="0.5" style="stop-color:#307FE2;stop-opacity:0.3"/>
			<stop  offset="0.75" style="stop-color:#307FE2;stop-opacity:0.1"/>
			<stop  offset="1" style="stop-color:#307FE2;stop-opacity:0.3"/>
		</linearGradient>
		<path class="st8" d="M1242.4,594.4c-40.9,0-82.3-3.7-123.6-11.2c-59.7-10.7-117.8-29.1-172.9-54.5
			c-53.9-25.1-104.7-56.9-150.9-94.3c-45.5-36.7-84.6-76.6-116-118.6c-32.3-43.1-55-86.2-67.5-128.3l0.5-0.1
			c12.5,42,35.2,85.2,67.4,128.2c31.4,41.9,70.4,81.8,116,118.5c46.2,37.4,97,69.1,150.8,94.2c55,25.4,113.1,43.8,172.7,54.5
			c60.2,10.9,120.6,13.8,179.6,8.8c60.7-5.2,118.5-18.7,171.9-40.2c93.5-38,175.7-100.1,255.2-160.2c72-54.5,146.5-110.8,230.9-151
			c21.1-10.1,43-19.3,65-27.2c48.8-17.7,100.4-30.9,153.4-39.1c51.4-7.9,104.4-11.3,157.6-9.9c4.4,0,8.8,0.2,13.2,0.4
			c1.1,0,2.1,0.1,3.2,0.1c133.7,5.7,264.9,40.5,364.3,70.1l-0.1,0.5c-99.4-29.7-230.6-64.4-364.2-70.1c-1.1,0-2.1-0.1-3.2-0.1
			c-4.3-0.2-8.8-0.4-13.1-0.4c-53.2-1.4-106.2,1.9-157.5,9.9c-53,8.2-104.6,21.3-153.3,39c-22,7.9-43.8,17.1-65,27.2
			c-84.3,40.3-158.8,96.5-230.8,151c-79.5,60.1-161.8,122.3-255.3,160.3c-53.4,21.5-111.3,35.1-172,40.2
			C1280,593.6,1261.3,594.4,1242.4,594.4z"/>
	</g>
	<g>
		
			<linearGradient id="SVGID_9_" gradientUnits="userSpaceOnUse" x1="1057.9237" y1="780.177" x2="1058.6016" y2="780.177" gradientTransform="matrix(2105.0281 0 0 -421.0315 -2225980.25 328856.8438)">
			<stop  offset="0" style="stop-color:#307FE2;stop-opacity:0.3"/>
			<stop  offset="0.25" style="stop-color:#307FE2;stop-opacity:0.1"/>
			<stop  offset="0.5" style="stop-color:#307FE2;stop-opacity:0.3"/>
			<stop  offset="0.75" style="stop-color:#307FE2;stop-opacity:0.1"/>
			<stop  offset="1" style="stop-color:#307FE2;stop-opacity:0.3"/>
		</linearGradient>
		<path class="st9" d="M1250.8,588.5c-43,0-86.5-4-130-12.1c-59.5-11-117.6-29.3-172.7-54.4c-53.8-24.8-104.8-55.7-151.6-92.1
			c-46-35.6-85.5-74-117.7-114.1c-33-41.2-56.4-82.1-69.7-121.7l0.5-0.2c13.2,39.5,36.6,80.4,69.6,121.5
			c32.1,40,71.6,78.4,117.6,114c46.7,36.3,97.7,67.3,151.5,92c55,25.1,113.1,43.4,172.6,54.4c60.2,11.1,120.4,14.6,179.2,10.3
			c60.6-4.4,118.4-17.1,171.7-37.6c94.9-36.7,175.1-95.4,260-157.6c71.3-52.2,145-106.2,227.9-145.5c21.1-10,42.9-19.2,64.9-27.1
			c99.7-36.1,204-53.3,310-51.3c5.4,0,10.9,0.1,16.3,0.4c57.6,2,117.5,9.3,183.2,22.4c54.6,10.9,113.6,26,180.5,46.1l-0.2,0.5
			c-66.9-20.1-125.9-35.2-180.4-46.1c-65.6-13.1-125.5-20.4-183.1-22.4c-5.4-0.3-10.9-0.4-16.3-0.4c-106-2.1-210.2,15.2-309.8,51.2
			c-21.9,8-43.8,17.1-64.9,27.1c-82.9,39.3-156.6,93.2-227.8,145.4c-84.9,62.2-165.1,120.9-260.1,157.7
			c-53.4,20.5-111.2,33.2-171.8,37.6C1283.8,587.9,1267.3,588.5,1250.8,588.5z"/>
	</g>
	<g>
		
			<linearGradient id="SVGID_10_" gradientUnits="userSpaceOnUse" x1="1057.9238" y1="780.1698" x2="1058.6008" y2="780.1698" gradientTransform="matrix(2108.6931 0 0 -411.8943 -2229860.25 321724.0625)">
			<stop  offset="0" style="stop-color:#307FE2;stop-opacity:0.3"/>
			<stop  offset="0.25" style="stop-color:#307FE2;stop-opacity:0.1"/>
			<stop  offset="0.5" style="stop-color:#307FE2;stop-opacity:0.3"/>
			<stop  offset="0.75" style="stop-color:#307FE2;stop-opacity:0.1"/>
			<stop  offset="1" style="stop-color:#307FE2;stop-opacity:0.3"/>
		</linearGradient>
		<path class="st10" d="M1259.5,582.7c-45.1,0-91-4.4-136.9-13.1c-59.4-11.3-117.4-29.5-172.5-54.3c-53.8-24.3-105-54.5-152.2-89.8
			C751.5,391,711.3,354.1,678.6,316c-33.7-39.3-57.9-78-71.8-115l0.5-0.2c13.9,37,38.1,75.6,71.8,114.9
			c32.8,38.2,72.9,75,119.3,109.6c47.2,35.3,98.4,65.5,152.1,89.8c55.1,24.7,113.1,43,172.4,54.2c60.1,11.4,120.2,15.4,178.7,11.8
			c60.5-3.7,118.2-15.5,171.5-35c96.5-35.6,178.4-93.7,265.2-155.1c70.5-49.9,143.3-101.6,224.6-139.9c21.1-10,42.9-19.1,64.8-27.1
			c99.2-36.4,203-54.4,308.6-53.6c5.4,0,10.9,0.1,16.3,0.3c106,2.6,221.5,23.9,363.2,66.9l-0.2,0.5c-141.7-43-257.1-64.2-363.1-66.8
			c-5.3-0.1-10.8-0.3-16.3-0.3c-105.6-0.8-209.3,17.2-308.5,53.5c-21.9,8-43.6,17.1-64.8,27.1c-81.3,38.3-154.1,89.9-224.5,139.8
			c-86.8,61.5-168.7,119.6-265.3,155.2c-53.4,19.5-111.1,31.3-171.7,35C1287.6,582.3,1273.6,582.7,1259.5,582.7z"/>
	</g>
	<g>
		
			<linearGradient id="SVGID_11_" gradientUnits="userSpaceOnUse" x1="1057.924" y1="780.1624" x2="1058.6001" y2="780.1624" gradientTransform="matrix(2112.385 0 0 -402.9361 -2233768.75 314730.9375)">
			<stop  offset="0" style="stop-color:#307FE2;stop-opacity:0.3"/>
			<stop  offset="0.25" style="stop-color:#307FE2;stop-opacity:0.1"/>
			<stop  offset="0.5" style="stop-color:#307FE2;stop-opacity:0.3"/>
			<stop  offset="0.75" style="stop-color:#307FE2;stop-opacity:0.1"/>
			<stop  offset="1" style="stop-color:#307FE2;stop-opacity:0.3"/>
		</linearGradient>
		<path class="st11" d="M1268.6,577.1c-47.1,0-95.5-4.7-144.2-14.2c-59.2-11.6-117.2-29.8-172.3-54.1
			c-53.7-23.8-105.1-53.3-152.9-87.5c-46.8-33.5-87.5-68.8-120.9-105.1c-34.4-37.4-59.3-73.9-74-108.4l0.5-0.2
			c14.6,34.4,39.5,70.8,73.9,108.2c33.4,36.3,74,71.6,120.8,105.1c47.7,34.2,99.1,63.6,152.8,87.4c55.1,24.3,113.1,42.5,172.2,54.1
			c123.5,24,244.4,17.5,349.6-19c98.3-34.3,182.1-91.8,270.8-152.7c69.5-47.7,141.3-97,220.9-134.2c21.1-9.9,42.9-19,64.7-27
			c98.8-36.7,202.3-55.5,307.6-55.9h16.2c107.3,1.7,222.6,22.4,362.7,65.2l-0.2,0.5c-140-42.8-255.2-63.6-362.5-65.2h-16.2
			c-105.3,0.4-208.7,19.2-307.4,55.9c-21.8,8-43.5,17.1-64.6,27c-79.5,37.2-151.4,86.5-220.8,134.2
			c-88.7,60.9-172.6,118.5-270.9,152.8C1410.5,566,1340.9,577.1,1268.6,577.1z"/>
	</g>
	<g>
		
			<linearGradient id="SVGID_12_" gradientUnits="userSpaceOnUse" x1="1057.9241" y1="780.1549" x2="1058.5994" y2="780.1549" gradientTransform="matrix(2116.0242 0 0 -394.1163 -2237621.5 307845.875)">
			<stop  offset="0" style="stop-color:#307FE2;stop-opacity:0.3"/>
			<stop  offset="0.25" style="stop-color:#307FE2;stop-opacity:0.1"/>
			<stop  offset="0.5" style="stop-color:#307FE2;stop-opacity:0.3"/>
			<stop  offset="0.75" style="stop-color:#307FE2;stop-opacity:0.1"/>
			<stop  offset="1" style="stop-color:#307FE2;stop-opacity:0.3"/>
		</linearGradient>
		<path class="st12" d="M1277.8,571.4c-49.5,0-100.3-5.1-151.6-15.3c-59-11.8-117-30-172.2-54c-53.6-23.5-105.3-52.2-153.5-85.4
			C753.3,384.3,712,350.5,678,316c-35.1-35.5-60.7-69.7-76.1-101.7l0.5-0.2c15.4,31.9,41,66.1,76,101.5
			c34,34.4,75.2,68.2,122.4,100.6c48.2,33.2,99.9,61.9,153.5,85.4c55.2,24,113.1,42.1,172.1,54c123.4,24.6,244.1,19.5,349-14.8
			c100.2-33.1,186-90.1,276.8-150.4c68.4-45.4,139-92.3,216.7-128.4c20.6-9.6,42.3-18.6,64.6-26.9c98.3-37,201.4-56.6,306.4-58.2
			h16.2c58,0.4,117.6,6.4,182.4,18.4c56.2,10.5,115,25.2,179.6,45.2l-0.2,0.5c-64.6-19.9-123.4-34.7-179.6-45.2
			c-64.8-12-124.4-18.1-182.4-18.4h-16.2c-105,1.6-208,21.2-306.2,58.2c-22.3,8.3-44,17.4-64.5,26.9
			c-77.7,36.1-148.3,83-216.7,128.4c-90.9,60.4-176.7,117.4-276.9,150.5C1414.1,561.4,1347.3,571.4,1277.8,571.4z"/>
	</g>
	<g>
		
			<linearGradient id="SVGID_13_" gradientUnits="userSpaceOnUse" x1="1057.9241" y1="780.1473" x2="1058.5988" y2="780.1473" gradientTransform="matrix(2119.7419 0 0 -385.5586 -2241557.25 301165.375)">
			<stop  offset="0" style="stop-color:#307FE2;stop-opacity:0.3"/>
			<stop  offset="0.25" style="stop-color:#307FE2;stop-opacity:0.1"/>
			<stop  offset="0.5" style="stop-color:#307FE2;stop-opacity:0.3"/>
			<stop  offset="0.75" style="stop-color:#307FE2;stop-opacity:0.1"/>
			<stop  offset="1" style="stop-color:#307FE2;stop-opacity:0.3"/>
		</linearGradient>
		<path class="st13" d="M1287.4,565.9c-51.8,0-105.3-5.5-159.4-16.5c-58.9-12.1-116.7-30.2-172-53.9
			c-53.6-23.1-105.5-51.1-154.2-83.2c-47.7-31.3-89.5-63.7-124.1-96.1c-35.9-33.6-62.2-65.6-78.3-95.1l0.5-0.2
			c16.1,29.4,42.4,61.4,78.2,94.9c34.7,32.5,76.4,64.8,124.1,96.1c48.7,32.1,100.6,60.1,154.1,83.2c55.2,23.6,113,41.7,171.9,53.8
			c123.5,25.2,244,21.5,348.4-10.6c102.2-31.8,190.2-88.3,283.3-148.2c67.1-43.1,136.4-87.7,212.1-122.6
			c21.1-9.7,42.8-18.8,64.5-26.9c101-37.9,203.8-58.3,305.3-60.5c2.7,0,5.4,0,8.1-0.1c2.6,0,5.4-0.1,8.1-0.1
			c108.1-0.3,226.3,19.9,361.5,62l-0.2,0.5c-135.1-42-253.4-62.3-361.4-62c-2.7,0-5.4,0-8.1,0.1c-2.6,0-5.4,0.1-8.1,0.1
			c-101.5,2.2-204.1,22.6-305.1,60.5c-21.7,8.1-43.4,17.1-64.4,26.9c-75.7,34.9-145,79.5-212.1,122.6
			c-93.2,59.9-181.2,116.4-283.4,148.2C1417.9,556.8,1354,565.9,1287.4,565.9z"/>
	</g>
	<g>
		
			<linearGradient id="SVGID_14_" gradientUnits="userSpaceOnUse" x1="1057.9242" y1="780.1395" x2="1058.5981" y2="780.1395" gradientTransform="matrix(2123.4319 0 0 -377.0991 -2245463.75 294561.4688)">
			<stop  offset="0" style="stop-color:#307FE2;stop-opacity:0.3"/>
			<stop  offset="0.25" style="stop-color:#307FE2;stop-opacity:0.1"/>
			<stop  offset="0.5" style="stop-color:#307FE2;stop-opacity:0.3"/>
			<stop  offset="0.75" style="stop-color:#307FE2;stop-opacity:0.1"/>
			<stop  offset="1" style="stop-color:#307FE2;stop-opacity:0.3"/>
		</linearGradient>
		<path class="st14" d="M1297.3,560.4c-54.3,0-110.6-5.9-167.5-17.8c-58.7-12.4-116.5-30.4-171.8-53.7c-53.6-22.7-105.7-50-154.9-81
			c-48.1-30.2-90.4-61.1-125.7-91.7c-36.6-31.7-63.6-61.4-80.5-88.3l0.4-0.3c33,52.7,108.1,118.3,206,179.9
			c49.2,31,101.3,58.3,154.8,81c55.3,23.3,113,41.4,171.7,53.7c123.5,25.8,243.7,23.6,347.8-6.5c104.4-30.5,194.6-86.6,290.2-145.9
			c65.7-40.8,133.6-83,207.2-116.7c21.1-9.6,42.7-18.7,64.4-26.8c102.1-38.6,204.4-59.7,304.1-62.8c5.7-0.2,11.6-0.3,16.1-0.4
			c108.9-1.4,227,18.4,361,60.4l-0.2,0.5c-133.9-42-252-61.7-360.8-60.3c-4.5,0.1-10.4,0.2-16.1,0.4
			c-99.6,3.1-201.9,24.2-303.9,62.8c-21.6,8.1-43.3,17.2-64.3,26.8c-73.6,33.7-141.5,75.9-207.2,116.7
			c-95.6,59.4-185.8,115.5-290.3,146C1421.7,552.3,1360.8,560.4,1297.3,560.4z"/>
	</g>
	<g>
		
			<linearGradient id="SVGID_15_" gradientUnits="userSpaceOnUse" x1="1057.9242" y1="780.1313" x2="1058.5974" y2="780.1313" gradientTransform="matrix(2127.0708 0 0 -368.8312 -2249316.25 288107.1562)">
			<stop  offset="0" style="stop-color:#307FE2;stop-opacity:0.3"/>
			<stop  offset="0.25" style="stop-color:#307FE2;stop-opacity:0.1"/>
			<stop  offset="0.5" style="stop-color:#307FE2;stop-opacity:0.3"/>
			<stop  offset="0.75" style="stop-color:#307FE2;stop-opacity:0.1"/>
			<stop  offset="1" style="stop-color:#307FE2;stop-opacity:0.3"/>
		</linearGradient>
		<path class="st15" d="M1308,555.1c-57,0-116.4-6.5-176.4-19.4c-58.6-12.6-116.3-30.7-171.6-53.6c-53.5-22.3-105.8-48.9-155.4-78.8
			c-98.9-59.3-175.4-120.8-210-168.9l0.4-0.3c34.5,48,111,109.5,209.8,168.7c49.6,29.9,101.9,56.4,155.4,78.8
			c55.3,22.9,113,40.9,171.5,53.6c60,12.8,119.4,19.3,176.3,19.3c0,0,0.1,0,0.1,0c60.1,0,117.6-7.3,170.8-21.6
			c106.9-29.2,199.7-85,298-144c64-38.4,130.1-78.2,201.3-110.6c21.1-9.6,42.7-18.6,64.3-26.7c103.1-39.2,205-61.1,303-65.1
			c4.6-0.2,9.6-0.4,16.1-0.5c57.3-1.2,118.4,3.6,181.6,14.5c56.7,9.7,116.8,24.6,178.8,44.2l-0.2,0.5
			c-62-19.6-122.1-34.5-178.7-44.2c-63.1-10.9-124.2-15.7-181.5-14.5c-6.5,0.2-11.4,0.3-16.1,0.5c-97.9,4-199.8,25.9-302.8,65.1
			c-21.6,8.1-43.2,17.1-64.3,26.7c-71.1,32.4-137.3,72.1-201.3,110.5c-98.3,59.1-191.2,114.9-298.1,144.1
			C1425.7,547.8,1368.2,555.1,1308,555.1C1308,555.1,1308,555.1,1308,555.1z"/>
	</g>
	<g>
		
			<linearGradient id="SVGID_16_" gradientUnits="userSpaceOnUse" x1="1057.9241" y1="780.123" x2="1058.5969" y2="780.123" gradientTransform="matrix(2130.7639 0 0 -360.7424 -2253226 281792.7812)">
			<stop  offset="0" style="stop-color:#307FE2;stop-opacity:0.3"/>
			<stop  offset="0.25" style="stop-color:#307FE2;stop-opacity:0.1"/>
			<stop  offset="0.5" style="stop-color:#307FE2;stop-opacity:0.3"/>
			<stop  offset="0.75" style="stop-color:#307FE2;stop-opacity:0.1"/>
			<stop  offset="1" style="stop-color:#307FE2;stop-opacity:0.3"/>
		</linearGradient>
		<path class="st16" d="M1318.7,550c-3.1,0-6.2,0-9.3-0.1c-56.7-0.7-115.9-7.7-176.1-20.9c-58.4-12.9-116.1-30.9-171.4-53.5
			c-53.5-22-106-47.7-156.1-76.6c-100-57.3-177.9-114.8-213.8-157.8l0.4-0.3c35.8,43,113.7,100.4,213.6,157.7
			c50.1,28.8,102.6,54.6,156.1,76.6c55.3,22.6,113,40.5,171.4,53.4c60.1,13.1,119.3,20.2,175.9,20.9c60.1,0.7,117.5-5.7,170.6-19
			c109.5-27.9,205.1-83.4,306.3-142.2c62.1-36.1,126.3-73.4,194.8-104.3c19.2-8.7,40.1-17.4,64.2-26.7
			c104.2-39.9,205.8-62.6,301.8-67.5c5.2-0.3,10.6-0.5,16-0.7c57.3-1.8,118.3,2.6,181.3,13.1c56.9,9.5,117,24.3,178.5,43.9l-0.2,0.5
			c-61.5-19.6-121.6-34.4-178.5-43.9c-62.9-10.5-123.9-14.9-181.2-13.1c-5.4,0.2-10.8,0.4-16,0.7c-96,4.9-197.5,27.6-301.7,67.4
			c-24,9.3-45,18-64.2,26.7c-68.5,30.9-132.7,68.2-194.7,104.3c-101.3,58.8-196.9,114.4-306.5,142.2
			C1429.8,543.6,1375.5,550,1318.7,550z"/>
	</g>
	<g>
		
			<linearGradient id="SVGID_17_" gradientUnits="userSpaceOnUse" x1="1057.924" y1="780.1144" x2="1058.5963" y2="780.1144" gradientTransform="matrix(2134.4548 0 0 -352.766 -2257133.5 275565.9062)">
			<stop  offset="0" style="stop-color:#307FE2;stop-opacity:0.3"/>
			<stop  offset="0.25" style="stop-color:#307FE2;stop-opacity:0.1"/>
			<stop  offset="0.5" style="stop-color:#307FE2;stop-opacity:0.3"/>
			<stop  offset="0.75" style="stop-color:#307FE2;stop-opacity:0.1"/>
			<stop  offset="1" style="stop-color:#307FE2;stop-opacity:0.3"/>
		</linearGradient>
		<path class="st17" d="M1329.9,544.7c-6.3,0-12.6-0.1-19-0.2c-56.4-1.4-115.5-8.9-175.6-22.4c-58.3-13.1-116-30.9-171.4-53.1
			c-53.5-21.6-106.2-46.6-156.8-74.4C706.2,339.5,626.9,286,589.6,247.9l0.4-0.4c37.3,38.1,116.5,91.5,217.4,146.6
			c50.5,27.8,103.3,52.8,156.7,74.4c55.4,22.1,113.1,40,171.3,53.1c60.1,13.5,119.1,21,175.5,22.4c60,1.5,117.4-4,170.5-16.4
			c112.4-26.4,211-81.8,315.4-140.4c60-33.7,122-68.5,187.6-98c21-9.4,42.6-18.4,64.1-26.6c107-41.1,205.3-63.9,300.6-69.7
			c6-0.4,11.2-0.6,16-0.8c109.9-4.5,230.8,14.1,359.2,55.5l-0.2,0.5c-128.4-41.3-249.2-60-359.1-55.4c-4.8,0.2-10,0.5-16,0.8
			c-95.2,5.8-193.4,28.6-300.4,69.6c-21.5,8.2-43,17.2-64.1,26.6c-65.7,29.5-127.6,64.3-187.6,98c-104.4,58.7-203,114.1-315.5,140.5
			C1434,539.2,1383.1,544.7,1329.9,544.7z"/>
	</g>
	<g>
		
			<linearGradient id="SVGID_18_" gradientUnits="userSpaceOnUse" x1="1057.9236" y1="780.106" x2="1058.5958" y2="780.106" gradientTransform="matrix(2138.2258 0 0 -345.1569 -2261125.5 269626)">
			<stop  offset="0" style="stop-color:#307FE2;stop-opacity:0.3"/>
			<stop  offset="0.25" style="stop-color:#307FE2;stop-opacity:0.1"/>
			<stop  offset="0.5" style="stop-color:#307FE2;stop-opacity:0.3"/>
			<stop  offset="0.75" style="stop-color:#307FE2;stop-opacity:0.1"/>
			<stop  offset="1" style="stop-color:#307FE2;stop-opacity:0.3"/>
		</linearGradient>
		<path class="st18" d="M1341.4,539.8c-9.7,0-19.5-0.2-29.3-0.5c-56-2.1-114.9-10.1-175.1-23.9c-58.1-13.4-115.6-31.3-171.1-53.2
			c-53.5-21.2-106.5-45.5-157.5-72.2C706.6,337.3,625.9,288,587.2,254.7l0.3-0.4c38.7,33.3,119.3,82.6,221.2,135.3
			c51,26.6,103.9,50.9,157.4,72.1c55.4,21.9,113,39.7,171,53.2c60.2,13.8,119.1,21.8,175,23.9c60,2.2,117.3-2.4,170.4-13.7
			c115.6-25.1,217.4-80.4,325.3-138.9c57.6-31.3,117.1-63.6,179.7-91.5c20.9-9.3,42.4-18.2,63.9-26.5
			c108.2-41.9,206.1-65.5,299.5-72.1c5.9-0.4,11.1-0.7,16-1c110.5-5.6,231.2,12.5,358.8,53.8l-0.2,0.5
			c-127.5-41.3-248.2-59.4-358.6-53.8c-4.8,0.2-10,0.6-15.9,1c-93.3,6.6-191.3,30.2-299.4,72.1c-21.4,8.3-42.9,17.2-63.8,26.5
			c-62.6,27.9-122.1,60.2-179.6,91.4c-107.9,58.6-209.8,113.9-325.4,138.9C1438.3,535.1,1390.9,539.8,1341.4,539.8z"/>
	</g>
	<g>
		
			<linearGradient id="SVGID_19_" gradientUnits="userSpaceOnUse" x1="1057.9229" y1="780.0972" x2="1058.5952" y2="780.0972" gradientTransform="matrix(2141.9429 0 0 -337.6655 -2265060.75 263777.8438)">
			<stop  offset="0" style="stop-color:#307FE2;stop-opacity:0.3"/>
			<stop  offset="0.25" style="stop-color:#307FE2;stop-opacity:0.1"/>
			<stop  offset="0.5" style="stop-color:#307FE2;stop-opacity:0.3"/>
			<stop  offset="0.75" style="stop-color:#307FE2;stop-opacity:0.1"/>
			<stop  offset="1" style="stop-color:#307FE2;stop-opacity:0.3"/>
		</linearGradient>
		<path class="st19" d="M1353.4,535.1c-67.5,0-139.2-8.8-214.6-26.5c-57.9-13.7-115.4-31.6-170.9-53c-48.7-18.7-99-41-158.1-70
			c-100.1-49.1-184.2-95.5-225-124.3l0.3-0.4c40.8,28.7,124.9,75.2,225,124.2c59.1,29,109.3,51.2,158.1,69.9
			c55.5,21.5,113,39.3,170.9,53c126.1,29.5,242.1,34.3,344.8,14.4c119-23.6,224.5-78.9,336.1-137.5c54.8-28.8,111.5-58.6,170.8-84.7
			c21-9.3,42.5-18.2,63.8-26.5c109.5-42.7,207.2-67,298.5-74.4c5.2-0.4,10.5-0.8,15.9-1.1c111.1-6.7,231.6,10.9,358.1,52.2l-0.2,0.5
			c-126.4-41.3-246.9-58.9-357.9-52.2c-5.3,0.3-10.7,0.7-15.9,1.1c-91.3,7.4-188.9,31.7-298.4,74.4c-21.4,8.3-42.8,17.2-63.8,26.5
			c-59.2,26.2-115.9,55.9-170.7,84.7c-111.7,58.6-217.1,114-336.2,137.6C1442.4,531,1398.9,535.1,1353.4,535.1z"/>
	</g>
	<g>
		
			<linearGradient id="SVGID_20_" gradientUnits="userSpaceOnUse" x1="1057.9215" y1="780.0883" x2="1058.5946" y2="780.0883" gradientTransform="matrix(2145.3479 0 0 -330.3583 -2268665.5 258073.5625)">
			<stop  offset="0" style="stop-color:#307FE2;stop-opacity:0.3"/>
			<stop  offset="0.25" style="stop-color:#307FE2;stop-opacity:0.1"/>
			<stop  offset="0.5" style="stop-color:#307FE2;stop-opacity:0.3"/>
			<stop  offset="0.75" style="stop-color:#307FE2;stop-opacity:0.1"/>
			<stop  offset="1" style="stop-color:#307FE2;stop-opacity:0.3"/>
		</linearGradient>
		<path class="st20" d="M1365.8,530.4c-70.3,0-145.7-9.5-225.3-28.5c-57.7-13.9-115.2-31.7-170.7-52.9
			c-47.3-17.9-97.8-39.4-158.8-67.8c-100.4-46.7-185.9-89-228.8-113.1l0.3-0.5c42.8,24.1,128.3,66.4,228.8,113.1
			c61,28.4,111.4,49.9,158.7,67.7c55.5,21.1,112.9,38.9,170.6,52.8c126.5,30.2,242.2,36.4,344.2,18.6
			c122.8-22,232.1-77.5,347.8-136.3c51.8-26.3,105.4-53.5,160.9-77.9c21-9.2,42.4-18.1,63.7-26.4c112.9-44.2,207.3-68.5,297.3-76.7
			c5.2-0.5,10.5-0.9,15.7-1.3c57.4-4,118-1.4,180.1,7.9c57.8,8.6,117.5,23,177.4,42.7l-0.2,0.5c-59.9-19.7-119.6-34.1-177.3-42.7
			c-62.1-9.2-122.7-11.9-180-7.9c-5.2,0.4-10.5,0.8-15.7,1.3c-89.9,8.2-184.4,32.6-297.2,76.7c-21.3,8.3-42.8,17.2-63.7,26.4
			c-55.5,24.4-109.1,51.6-160.8,77.9c-115.8,58.8-225.1,114.3-348,136.3C1447.1,527,1407.3,530.4,1365.8,530.4z"/>
	</g>
	<g>
		
			<linearGradient id="SVGID_21_" gradientUnits="userSpaceOnUse" x1="1057.9188" y1="780.0792" x2="1058.5938" y2="780.0792" gradientTransform="matrix(2149.0649 0 0 -323.1982 -2272600.75 252484.0781)">
			<stop  offset="0" style="stop-color:#307FE2;stop-opacity:0.3"/>
			<stop  offset="0.25" style="stop-color:#307FE2;stop-opacity:0.1"/>
			<stop  offset="0.5" style="stop-color:#307FE2;stop-opacity:0.3"/>
			<stop  offset="0.75" style="stop-color:#307FE2;stop-opacity:0.1"/>
			<stop  offset="1" style="stop-color:#307FE2;stop-opacity:0.3"/>
		</linearGradient>
		<path class="st21" d="M1378.2,525.8c-20.3,0-41-0.8-62.1-2.4c-54.7-4.1-113.2-13.7-173.7-28.4c-57.6-14.2-115-32-170.6-52.8
			c-56.5-20.8-110-43.8-159.4-65.5c-22.5-9.9-44.3-19.5-65.2-28.7c-71.2-31.3-132.7-58.4-167.4-73.3l0.2-0.5
			c34.6,14.9,96.2,41.9,167.4,73.3c20.9,9.2,42.7,18.8,65.2,28.7c49.4,21.7,102.8,44.6,159.3,65.4c55.6,20.8,112.9,38.5,170.5,52.8
			c60.5,14.8,118.9,24.3,173.6,28.4c59.9,4.5,117.1,2.6,169.9-5.7c127.1-20.4,240.8-76.3,361.2-135.5
			c48.2-23.7,98.1-48.2,149.4-70.6c19.1-8.4,39.9-17,63.6-26.4c114-45,208.1-70,296.1-78.9c5.2-0.6,10.5-1,15.7-1.4
			c57.4-4.6,117.9-2.4,179.8,6.5c58,8.3,117.6,22.6,177.1,42.4l-0.2,0.5c-59.5-19.8-119.1-34-177.1-42.4
			c-61.9-8.9-122.4-11.1-179.7-6.5c-5.2,0.4-10.5,0.9-15.7,1.4c-88,8.9-182,33.9-296,78.9c-23.7,9.4-44.5,18-63.6,26.4
			c-51.3,22.4-101.2,46.9-149.4,70.6c-120.4,59.2-234.2,115.1-361.3,135.5C1451.9,523.1,1415.7,525.8,1378.2,525.8z"/>
	</g>
	<g>
		
			<linearGradient id="SVGID_22_" gradientUnits="userSpaceOnUse" x1="1057.9127" y1="780.0703" x2="1058.5922" y2="780.0703" gradientTransform="matrix(2152.8352 0 0 -316.4629 -2276592 247226.3281)">
			<stop  offset="0" style="stop-color:#307FE2;stop-opacity:0.3"/>
			<stop  offset="0.25" style="stop-color:#307FE2;stop-opacity:0.1"/>
			<stop  offset="0.5" style="stop-color:#307FE2;stop-opacity:0.3"/>
			<stop  offset="0.75" style="stop-color:#307FE2;stop-opacity:0.1"/>
			<stop  offset="1" style="stop-color:#307FE2;stop-opacity:0.3"/>
		</linearGradient>
		<path class="st22" d="M1391.3,521.5c-24,0-48.7-1.1-73.9-3.3c-54.3-4.8-112.6-14.8-173.2-29.9c-57.5-14.5-114.8-32.2-170.4-52.7
			c-56.5-20.5-111.5-43.3-160.1-63.4c-78.3-32.4-182.9-74.5-236.3-90.8l0.2-0.5c53.5,16.2,158,58.3,236.4,90.8
			c48.5,20.1,103.5,42.8,160,63.3c55.6,20.4,112.9,38.1,170.4,52.6c60.7,15.1,118.9,25.2,173.2,29.9c60,5.3,117.1,4.3,169.7-3
			c131.9-18.7,250.5-75.2,376-135c44.2-21,89.9-42.8,136.6-63c21-9.1,42.4-17.9,63.5-26.3c79-31.4,184-69,295-81.3
			c4.3-0.5,9.9-1.1,15.7-1.6c57.4-5.1,117.8-3.4,179.5,5.2c58.1,8.1,117.7,22.3,176.9,42.1l-0.2,0.5c-59.2-19.8-118.7-34-176.8-42.1
			c-61.7-8.6-122.1-10.4-179.4-5.2c-5.8,0.5-11.4,1.1-15.7,1.6c-110.9,12.3-215.8,49.9-294.8,81.3c-21.2,8.4-42.5,17.2-63.5,26.3
			c-46.7,20.2-92.4,42-136.6,63c-125.6,59.8-244.2,116.3-376.1,135C1456.7,519.4,1424.6,521.5,1391.3,521.5z"/>
	</g>
	<g>
		
			<linearGradient id="SVGID_23_" gradientUnits="userSpaceOnUse" x1="1057.897" y1="780.0609" x2="1058.5889" y2="780.0609" gradientTransform="matrix(2156.4731 0 0 -309.7987 -2280443.5 242024.1406)">
			<stop  offset="0" style="stop-color:#307FE2;stop-opacity:0.3"/>
			<stop  offset="0.25" style="stop-color:#307FE2;stop-opacity:0.1"/>
			<stop  offset="0.5" style="stop-color:#307FE2;stop-opacity:0.3"/>
			<stop  offset="0.75" style="stop-color:#307FE2;stop-opacity:0.1"/>
			<stop  offset="1" style="stop-color:#307FE2;stop-opacity:0.3"/>
		</linearGradient>
		<path class="st23" d="M1404.3,517.5c-78.3,0-163.6-11.9-258.3-36c-53.2-13.5-108.9-30.7-170.2-52.5
			c-46.1-16.4-90.7-33.8-133.9-50.7c-9-3.5-18-7-26.8-10.4c-111.1-43.2-196.4-71.5-240-79.6l0.1-0.5c43.7,8.2,129,36.5,240.1,79.7
			c8.8,3.4,17.8,6.9,26.8,10.4c43.1,16.8,87.7,34.3,133.9,50.7c61.3,21.8,117,39,170.2,52.5c129.7,32.9,241.7,43.1,342.3,31.1
			c137-16.9,260.8-74.1,391.8-134.6c39.7-18.4,80.8-37.4,122.6-55.3c20.9-9,42.2-17.8,63.4-26.2c85.3-34.1,186.9-70.7,293.8-83.6
			c5.2-0.6,10.5-1.2,15.7-1.7c57.4-5.7,117.7-4.4,179.3,3.8c58.2,7.8,117.7,21.9,176.6,41.7l-0.2,0.5
			c-58.9-19.9-118.2-33.9-176.5-41.7c-61.6-8.3-121.9-9.6-179.2-3.8c-5.2,0.5-10.5,1.1-15.7,1.7c-106.8,12.9-208.4,49.5-293.7,83.6
			c-21.2,8.4-42.6,17.2-63.4,26.2c-41.7,17.9-82.8,36.9-122.6,55.3c-131.1,60.6-255,117.8-392,134.7
			C1461.3,515.8,1433.3,517.5,1404.3,517.5z"/>
	</g>
	<g>
		
			<linearGradient id="SVGID_24_" gradientUnits="userSpaceOnUse" x1="1057.8494" y1="780.0518" x2="1058.5793" y2="780.0518" gradientTransform="matrix(2160.2173 0 0 -303.4373 -2284407.25 237058.2344)">
			<stop  offset="0" style="stop-color:#307FE2;stop-opacity:0.3"/>
			<stop  offset="0.25" style="stop-color:#307FE2;stop-opacity:0.1"/>
			<stop  offset="0.5" style="stop-color:#307FE2;stop-opacity:0.3"/>
			<stop  offset="0.75" style="stop-color:#307FE2;stop-opacity:0.1"/>
			<stop  offset="1" style="stop-color:#307FE2;stop-opacity:0.3"/>
		</linearGradient>
		<path class="st24" d="M1418.3,513.4c-81.1,0-170.3-12.8-270.5-38.7c-52.1-13.5-107.7-30.6-170.1-52.4
			c-36.8-12.9-72.9-26.2-107.9-39.2c-18.5-6.9-36-13.3-53.5-19.7c-111.3-40.6-197.9-64.9-243.8-68.5l0-0.5
			c46,3.6,132.6,27.9,244,68.5c17.5,6.4,35,12.9,53.5,19.7c34.9,13,71,26.4,107.9,39.2c62.4,21.8,118,38.9,170,52.3
			c130.4,33.8,242.2,45.3,341.7,35.2c142.7-14.9,272.5-73.1,409.8-134.8c34.6-15.5,70.4-31.6,106.5-47c20.8-8.9,42.1-17.7,63.3-26.2
			c91.1-36.6,189.6-72.4,292.6-86c5.2-0.7,10.5-1.3,15.7-1.9c111.9-12.2,234.7,3,355.3,44l-0.2,0.5c-120.5-41-243.2-56.2-355-44
			c-5.2,0.6-10.5,1.2-15.7,1.9c-103,13.5-201.5,49.3-292.5,85.9c-21.2,8.5-42.5,17.3-63.3,26.2c-36.1,15.4-71.9,31.4-106.5,47
			c-137.4,61.7-267.1,119.9-409.9,134.8C1466.6,512.3,1442.8,513.4,1418.3,513.4z"/>
	</g>
	<g>
		
			<linearGradient id="SVGID_25_" gradientUnits="userSpaceOnUse" x1="1057.8477" y1="780.0427" x2="1058.5787" y2="780.0427" gradientTransform="matrix(2163.9612 0 0 -297.457 -2288370.75 232390.0469)">
			<stop  offset="0" style="stop-color:#307FE2;stop-opacity:0.3"/>
			<stop  offset="0.25" style="stop-color:#307FE2;stop-opacity:0.1"/>
			<stop  offset="0.5" style="stop-color:#307FE2;stop-opacity:0.3"/>
			<stop  offset="0.75" style="stop-color:#307FE2;stop-opacity:0.1"/>
			<stop  offset="1" style="stop-color:#307FE2;stop-opacity:0.3"/>
		</linearGradient>
		<path class="st25" d="M1432,509.9c-35.1,0-71.7-2.4-110.5-7.3c-53.4-6.7-109.6-18-171.9-34.5c-50.8-13.5-106.4-30.7-169.9-52.4
			c-27.6-9.5-55.1-19.2-81.6-28.6c-27.9-9.9-54.2-19.2-80.4-28.1c-112.1-38.2-200-58.6-247.6-57.3l0-0.5
			c47.6-1.2,135.6,19.1,247.8,57.4c26.2,8.9,52.5,18.2,80.4,28.1c26.5,9.4,54,19.1,81.6,28.6c63.5,21.7,119,38.8,169.8,52.4
			c131.1,34.6,242.7,47.5,341.1,39.4c149.3-12.8,285.8-72.5,430.3-135.7c28.7-12.5,58.3-25.5,88-38c20.9-8.9,42.2-17.7,63.2-26.2
			c86.2-35,186.8-73.5,291.4-88.3c5.2-0.7,10.5-1.4,15.7-2c112.2-13.4,234.8,1.3,354.7,42.4l-0.2,0.5
			c-119.8-41.1-242.4-55.7-354.5-42.4c-5.2,0.6-10.5,1.3-15.7,2c-104.5,14.8-205.1,53.3-291.2,88.3c-21.1,8.5-42.3,17.3-63.2,26.2
			c-29.7,12.6-59.3,25.5-88,38c-144.5,63.2-281.1,122.9-430.5,135.8C1471.7,509.1,1452,509.9,1432,509.9z"/>
	</g>
	<g>
		
			<linearGradient id="SVGID_26_" gradientUnits="userSpaceOnUse" x1="1057.8795" y1="780.0334" x2="1058.5847" y2="780.0334" gradientTransform="matrix(2167.5742 0 0 -291.4714 -2292195.75 227717.6406)">
			<stop  offset="0" style="stop-color:#307FE2;stop-opacity:0.3"/>
			<stop  offset="0.25" style="stop-color:#307FE2;stop-opacity:0.1"/>
			<stop  offset="0.5" style="stop-color:#307FE2;stop-opacity:0.3"/>
			<stop  offset="0.75" style="stop-color:#307FE2;stop-opacity:0.1"/>
			<stop  offset="1" style="stop-color:#307FE2;stop-opacity:0.3"/>
		</linearGradient>
		<path class="st26" d="M1445.8,506.2c-38.9,0-79.6-3-123.1-9.1c-52.7-7.3-108.8-19.1-171.4-36c-49-13.2-102.9-29.8-169.7-52.1
			c-19.5-6.5-39-13.2-57.9-19.6C887.4,377,853,365.3,819,354.5c-111-35.4-202.6-52.2-251.2-46.2l-0.1-0.5
			c48.7-6,140.4,10.8,251.4,46.2c34,10.8,68.4,22.5,104.8,34.9c18.9,6.4,38.4,13.1,57.8,19.6c66.8,22.4,120.7,38.9,169.7,52.1
			c62.6,16.9,118.6,28.6,171.3,36c60.9,8.5,116.3,11,169.2,7.6c156.6-10.5,300.4-72,452.7-137c22-9.4,44.7-19.1,67.4-28.6
			c21-8.8,42.2-17.6,63.1-26c95.9-39,190.2-75.4,290.4-90.6c5.2-0.8,10.5-1.5,15.7-2.2c112.5-14.5,234.9-0.4,354.1,40.7l-0.2,0.5
			c-119.1-41.2-241.5-55.2-353.9-40.7c-5.2,0.7-10.5,1.4-15.7,2.2c-100.1,15.2-194.4,51.5-290.2,90.6c-20.9,8.5-42.2,17.2-63.1,26
			c-22.7,9.5-45.4,19.2-67.4,28.6c-152.3,65.1-296.2,126.5-452.8,137.1C1476.8,505.7,1461.5,506.2,1445.8,506.2z"/>
	</g>
	<g>
		
			<linearGradient id="SVGID_27_" gradientUnits="userSpaceOnUse" x1="1057.9072" y1="780.0244" x2="1058.59" y2="780.0244" gradientTransform="matrix(2171.2129 0 0 -285.9127 -2296048 223378.5469)">
			<stop  offset="0" style="stop-color:#307FE2;stop-opacity:0.3"/>
			<stop  offset="0.25" style="stop-color:#307FE2;stop-opacity:0.1"/>
			<stop  offset="0.5" style="stop-color:#307FE2;stop-opacity:0.3"/>
			<stop  offset="0.75" style="stop-color:#307FE2;stop-opacity:0.1"/>
			<stop  offset="1" style="stop-color:#307FE2;stop-opacity:0.3"/>
		</linearGradient>
		<path class="st27" d="M1460.3,502.9c-88.7,0-187.3-15.6-307-48.5c-58.1-15.9-115.8-34.4-169.5-52c-12.3-4-24.7-8.1-36.7-12.1
			c-44-14.5-85.6-28.3-126.6-40.3c-53.4-15.7-104.1-27.2-146.8-33.4c-46.1-6.7-82.5-7.2-108.3-1.7l-0.1-0.5
			c25.8-5.6,62.3-5,108.5,1.7c42.7,6.2,93.4,17.7,146.8,33.4c41,12,82.6,25.7,126.6,40.3c12,4,24.4,8.1,36.7,12.1
			c53.7,17.6,111.4,36.1,169.5,52c134.7,37,242.7,52.1,339.9,47.7c165.5-8.1,318.4-72.2,480.2-140.1c13.7-5.7,27.8-11.7,41.8-17.5
			c20.8-8.7,42-17.4,63-26c101.2-41.5,192.8-77.1,289.2-92.9c5.2-0.9,10.3-1.6,15.4-2.3l0.2,0c112.8-15.7,235-2.2,353.6,39.1
			l-0.2,0.5c-118.5-41.3-240.7-54.8-353.3-39.1l-0.2,0c-5,0.7-10.2,1.5-15.3,2.3c-96.4,15.8-187.9,51.4-289.1,92.9
			c-21,8.6-42.2,17.3-63,26c-14,5.8-28.1,11.8-41.8,17.5c-161.9,67.9-314.8,132-480.4,140.1C1482.5,502.7,1471.4,502.9,1460.3,502.9
			z"/>
	</g>
	<g>
		
			<linearGradient id="SVGID_28_" gradientUnits="userSpaceOnUse" x1="1057.9175" y1="780.0154" x2="1058.5919" y2="780.0154" gradientTransform="matrix(2174.8262 0 0 -280.6309 -2299873.25 219255.6094)">
			<stop  offset="0" style="stop-color:#307FE2;stop-opacity:0.3"/>
			<stop  offset="0.25" style="stop-color:#307FE2;stop-opacity:0.1"/>
			<stop  offset="0.5" style="stop-color:#307FE2;stop-opacity:0.3"/>
			<stop  offset="0.75" style="stop-color:#307FE2;stop-opacity:0.1"/>
			<stop  offset="1" style="stop-color:#307FE2;stop-opacity:0.3"/>
		</linearGradient>
		<path class="st28" d="M1474.3,499.8c-46.5,0-95.4-4.3-148.8-13.2c-51-8.5-106.8-21.2-170.4-39c-56.1-15.7-112.1-33.5-169.4-51.9
			l-9.3-3c-53.8-17.3-104.6-33.6-154.6-47.1c-53.8-14.6-105.1-24.6-148.4-28.9c-46.8-4.7-84-3-110.4,5l-0.2-0.5
			c26.5-8,63.7-9.7,110.6-5c43.3,4.4,94.7,14.4,148.5,28.9c50,13.5,100.8,29.8,154.6,47.1l9.3,3c57.3,18.4,113.3,36.2,169.4,51.9
			c63.6,17.8,119.4,30.6,170.4,39c61.1,10.1,116.3,14.3,168.9,12.9c175.4-5.3,338.1-72.6,510.5-143.9l13.4-5.5
			c20.9-8.7,42-17.4,62.8-25.9l1.8-0.8c92.3-38,187.7-77.4,286.2-94.4c5.2-0.9,10.4-1.8,15.5-2.6c113-16.9,235.1-3.9,353,37.5
			l-0.2,0.5c-117.9-41.4-239.9-54.3-352.8-37.5c-5.1,0.9-10.3,1.7-15.5,2.6c-98.5,17.1-193.9,56.4-286.1,94.4l-1.8,0.8
			c-20.8,8.5-42,17.2-62.8,25.9l-13.4,5.5c-172.4,71.3-335.2,138.7-510.6,144C1487.8,499.7,1481.1,499.8,1474.3,499.8z"/>
	</g>
	<g>
		
			<linearGradient id="SVGID_29_" gradientUnits="userSpaceOnUse" x1="1057.9222" y1="780.0061" x2="1058.5927" y2="780.0061" gradientTransform="matrix(2178.623 0 0 -275.3421 -2303892.75 215127.4688)">
			<stop  offset="0" style="stop-color:#307FE2;stop-opacity:0.3"/>
			<stop  offset="0.25" style="stop-color:#307FE2;stop-opacity:0.1"/>
			<stop  offset="0.5" style="stop-color:#307FE2;stop-opacity:0.3"/>
			<stop  offset="0.75" style="stop-color:#307FE2;stop-opacity:0.1"/>
			<stop  offset="1" style="stop-color:#307FE2;stop-opacity:0.3"/>
		</linearGradient>
		<path class="st29" d="M1489.7,496.9c-120.1,0-240.7-29.9-332.8-56.1c-49.6-14.1-99.8-29.9-148.4-45.2c-6.9-2.2-13.9-4.4-20.8-6.5
			c-61.9-19.4-113.3-35.3-164.6-47.9c-54.2-13.4-106.1-21.9-150-24.4c-47.5-2.8-85.4,1.2-112.6,11.7l-0.2-0.5
			c27.2-10.5,65.2-14.4,112.8-11.7c43.9,2.5,95.9,11,150.1,24.5c51.3,12.6,102.7,28.5,164.6,47.9c6.9,2.2,13.9,4.4,20.8,6.5
			c48.5,15.3,98.7,31.1,148.3,45.2c92.1,26.2,212.7,56.1,332.7,56.1c2,0,4,0,6,0c81.4-1,167.8-15.5,264.3-44.4
			c85.4-25.6,168.9-59.1,261.5-97c20.7-8.5,41.8-17.2,62.8-25.9c4.5-1.9,9-3.8,13.5-5.6c88.1-36.7,179.2-74.6,273.4-91.9
			c5.1-0.9,10.2-1.8,15.5-2.6c57-9.1,116.8-10.4,177.5-4c58.9,6.2,117.7,19.6,174.9,39.9l-0.2,0.5c-57.2-20.2-116-33.6-174.8-39.8
			c-60.7-6.4-120.4-5.1-177.4,4c-5.3,0.8-10.3,1.7-15.4,2.6c-94.2,17.3-185.2,55.2-273.3,91.8c-4.5,1.9-9,3.8-13.5,5.6
			c-21,8.7-42.1,17.4-62.8,25.9c-92.5,37.9-176.1,71.4-261.5,97c-96.5,28.9-183,43.4-264.4,44.4
			C1493.7,496.9,1491.7,496.9,1489.7,496.9z"/>
	</g>
	<g>
		
			<linearGradient id="SVGID_30_" gradientUnits="userSpaceOnUse" x1="1057.9248" y1="779.9974" x2="1058.5931" y2="779.9974" gradientTransform="matrix(2182.366 0 0 -270.6189 -2307855.25 211440.7656)">
			<stop  offset="0" style="stop-color:#307FE2;stop-opacity:0.3"/>
			<stop  offset="0.25" style="stop-color:#307FE2;stop-opacity:0.1"/>
			<stop  offset="0.5" style="stop-color:#307FE2;stop-opacity:0.3"/>
			<stop  offset="0.75" style="stop-color:#307FE2;stop-opacity:0.1"/>
			<stop  offset="1" style="stop-color:#307FE2;stop-opacity:0.3"/>
		</linearGradient>
		<path class="st30" d="M1501.9,494.3c-1.7,0-3.4,0-5.1,0c-118.9-1.1-237.7-31.1-338.2-60.2c-39.7-11.5-79.9-24-118.9-36.1
			c-16.5-5.1-33.5-10.4-50.2-15.5c-62.5-19.2-114.5-34.3-165.2-45.7c-54.7-12.3-107.1-19.2-151.6-19.9
			c-48.3-0.8-86.9,5.4-114.8,18.3l-0.2-0.5c27.9-13,66.6-19.1,115-18.3c44.5,0.7,97,7.6,151.7,19.9c50.8,11.4,102.8,26.5,165.3,45.7
			c16.7,5.1,33.7,10.4,50.2,15.5c38.9,12.1,79.2,24.6,118.8,36.1c100.5,29.1,219.2,59.1,338.1,60.2c82.3,0.5,169.1-12.3,265.3-39.3
			c88.7-24.9,178.5-59.9,262.3-94c21-8.5,42.1-17.2,62.8-25.8c9.3-3.9,18.6-7.8,27.9-11.7c83.1-34.8,169-70.9,257.8-88.1
			c5.3-1,10.4-2,15.4-2.8c57-9.6,116.6-11.4,177.2-5.3c58.9,6,117.7,19.3,174.7,39.6l-0.2,0.5c-57-20.3-115.7-33.6-174.5-39.5
			c-60.5-6.1-120.1-4.3-177,5.3c-5,0.8-10.1,1.8-15.4,2.8c-88.8,17.3-174.7,53.3-257.7,88.1c-9.3,3.9-18.6,7.8-27.9,11.7
			c-20.7,8.6-41.8,17.3-62.8,25.8c-83.8,34.1-173.6,69.1-262.4,94C1668,481.4,1582.8,494.3,1501.9,494.3z"/>
	</g>
	<g>
		
			<linearGradient id="SVGID_31_" gradientUnits="userSpaceOnUse" x1="1057.9265" y1="779.989" x2="1058.5934" y2="779.989" gradientTransform="matrix(2185.9531 0 0 -266.1069 -2311653 207919.0781)">
			<stop  offset="0" style="stop-color:#307FE2;stop-opacity:0.3"/>
			<stop  offset="0.25" style="stop-color:#307FE2;stop-opacity:0.1"/>
			<stop  offset="0.5" style="stop-color:#307FE2;stop-opacity:0.3"/>
			<stop  offset="0.75" style="stop-color:#307FE2;stop-opacity:0.1"/>
			<stop  offset="1" style="stop-color:#307FE2;stop-opacity:0.3"/>
		</linearGradient>
		<path class="st31" d="M1517.8,491.9c-6.6,0-13.2-0.1-19.7-0.2c-51.9-1.4-107.1-8.3-168.6-20.9c-49.2-10.1-101.4-23.5-169-43.5
			c-31.4-9.3-63.3-19.1-94.2-28.6c-24.5-7.5-49.8-15.4-74.7-22.8c-50-15-108.8-31.9-165.9-43.5c-55.1-11.2-108.1-16.5-153.3-15.5
			c-49,1.2-88.3,9.6-116.9,25l-0.2-0.5c28.6-15.4,68-23.8,117.1-25c45.2-1.1,98.2,4.3,153.4,15.5c57.1,11.6,115.9,28.5,165.9,43.5
			c24.9,7.5,50.2,15.3,74.7,22.8c30.9,9.5,62.8,19.4,94.2,28.6c67.6,20,119.7,33.4,169,43.5c61.5,12.6,116.6,19.5,168.5,20.9
			c83.1,2.1,170.2-9.1,266.3-34.2c94.7-24.8,186.2-59.9,263.2-91c20.9-8.4,41.9-17.1,62.6-25.8c12.4-5.2,25-10.6,37.1-15.7
			c79.7-33.9,162.1-68.9,247.5-86.4c5.1-1,10.3-2,15.4-3c57-10.2,116.5-12.5,176.9-6.7c59,5.7,117.7,18.9,174.4,39.3l-0.2,0.5
			c-56.6-20.4-115.3-33.6-174.3-39.3c-60.4-5.8-119.9-3.6-176.8,6.7c-5.1,0.9-10.3,1.9-15.4,3c-85.3,17.5-167.7,52.5-247.4,86.4
			c-12.2,5.2-24.7,10.5-37.1,15.7c-20.7,8.7-41.7,17.3-62.6,25.8c-77.1,31.1-168.6,66.2-263.3,91
			C1676,480.6,1595.1,491.9,1517.8,491.9z"/>
	</g>
	<g>
		
			<linearGradient id="SVGID_32_" gradientUnits="userSpaceOnUse" x1="1057.9276" y1="779.9808" x2="1058.5936" y2="779.9808" gradientTransform="matrix(2189.6189 0 0 -261.9164 -2315533.75 204648.3594)">
			<stop  offset="0" style="stop-color:#307FE2;stop-opacity:0.3"/>
			<stop  offset="0.25" style="stop-color:#307FE2;stop-opacity:0.1"/>
			<stop  offset="0.5" style="stop-color:#307FE2;stop-opacity:0.3"/>
			<stop  offset="0.75" style="stop-color:#307FE2;stop-opacity:0.1"/>
			<stop  offset="1" style="stop-color:#307FE2;stop-opacity:0.3"/>
		</linearGradient>
		<path class="st32" d="M1534.3,489.8c-11.7,0-23.4-0.3-35-0.8c-51.7-2.4-106.8-10.1-168.4-23.6c-61.1-13.4-122.2-31.1-168.6-45.1
			c-23.4-7-47.2-14.4-70.2-21.4c-32.3-9.9-65.6-20.2-98.5-29.9c-46.2-13.5-106.8-30.5-166.5-41.3c-117.6-21.4-217.4-13.9-273.9,20.6
			l-0.3-0.4c56.6-34.5,156.6-42,274.3-20.7c59.7,10.8,120.4,27.8,166.6,41.3c32.9,9.6,66.2,19.9,98.5,29.9
			c23,7.1,46.8,14.4,70.2,21.4c46.4,14,107.5,31.7,168.6,45.1c61.6,13.5,116.7,21.2,168.3,23.6c84,3.7,171.5-5.9,267.4-29.2
			c77.1-18.7,160.9-46.7,264-87.9c20.8-8.3,41.8-17,62.5-25.7c15.6-6.6,31.4-13.4,46.6-19.9c76.3-32.9,155.1-66.9,236.9-84.5
			c4.4-1,9.2-1.9,15.3-3.1c56.9-10.8,116.3-13.5,176.6-8c59.1,5.4,117.6,18.5,174.1,39l-0.2,0.5c-56.4-20.4-114.9-33.5-174-38.9
			c-60.3-5.5-119.7-2.8-176.5,8c-6.2,1.2-10.9,2.2-15.3,3.1c-81.7,17.6-160.6,51.6-236.8,84.5c-15.3,6.6-31,13.4-46.6,20
			c-20.7,8.7-41.7,17.4-62.5,25.7c-103.1,41.3-187,69.2-264.1,88C1684.1,480,1607.7,489.8,1534.3,489.8z"/>
	</g>
	<g>
		
			<linearGradient id="SVGID_33_" gradientUnits="userSpaceOnUse" x1="1057.9286" y1="779.9728" x2="1058.5939" y2="779.9728" gradientTransform="matrix(2193.311 0 0 -258.0029 -2319442.5 201594.0312)">
			<stop  offset="0" style="stop-color:#307FE2;stop-opacity:0.3"/>
			<stop  offset="0.25" style="stop-color:#307FE2;stop-opacity:0.1"/>
			<stop  offset="0.5" style="stop-color:#307FE2;stop-opacity:0.3"/>
			<stop  offset="0.75" style="stop-color:#307FE2;stop-opacity:0.1"/>
			<stop  offset="1" style="stop-color:#307FE2;stop-opacity:0.3"/>
		</linearGradient>
		<path class="st33" d="M1551.5,488c-17.2,0-34.2-0.5-51.1-1.6c-51.4-3.4-106.5-12-168.2-26.3c-58.8-13.6-118-31.2-168.1-46.5
			c-14.9-4.6-30.1-9.3-44.8-13.8c-40.5-12.5-82.3-25.5-123.7-37.3c-67.7-19.4-119.3-31.4-167.2-39.1c-118.6-19-219.8-7.5-277.7,31.7
			l-0.3-0.4c58-39.3,159.4-50.9,278.1-31.8c47.9,7.6,99.5,19.7,167.2,39.1c41.4,11.8,83.2,24.8,123.7,37.3
			c14.7,4.6,29.9,9.3,44.8,13.8c50.1,15.4,109.3,32.9,168.1,46.5c61.7,14.3,116.7,22.9,168.1,26.3c84.8,5.3,172.7-2.7,268.4-24.2
			c80.1-18,164.3-45,264.9-84.9c20.8-8.2,41.8-16.9,62.4-25.6c18.1-7.7,36.4-15.7,54-23.4c73.5-32.2,149.4-65.5,228.3-83.3
			c4.2-0.9,9.7-2.1,15.3-3.2c56.8-11.4,116.1-14.5,176.4-9.3c59.1,5.1,117.6,18.1,173.8,38.6l-0.2,0.5
			c-56.2-20.5-114.6-33.5-173.7-38.6c-60.2-5.2-119.5-2.1-176.2,9.3c-5.6,1.1-11.1,2.3-15.3,3.2c-78.8,17.9-154.7,51.1-228.2,83.3
			c-17.7,7.7-36,15.8-54,23.4c-20.6,8.8-41.6,17.4-62.4,25.6c-100.6,39.9-184.8,66.9-265,84.9C1692.3,479.5,1620.6,488,1551.5,488z"
			/>
	</g>
	<g>
		
			<linearGradient id="SVGID_34_" gradientUnits="userSpaceOnUse" x1="1057.9293" y1="779.9655" x2="1058.594" y2="779.9655" gradientTransform="matrix(2196.9761 0 0 -254.4789 -2323322.5 198843.8281)">
			<stop  offset="0" style="stop-color:#307FE2;stop-opacity:0.3"/>
			<stop  offset="0.25" style="stop-color:#307FE2;stop-opacity:0.1"/>
			<stop  offset="0.5" style="stop-color:#307FE2;stop-opacity:0.3"/>
			<stop  offset="0.75" style="stop-color:#307FE2;stop-opacity:0.1"/>
			<stop  offset="1" style="stop-color:#307FE2;stop-opacity:0.3"/>
		</linearGradient>
		<path class="st34" d="M1569.8,486.6c-23,0-45.6-0.9-68.2-2.7c-111.4-9.2-222.4-41.6-335.7-77c-9.2-2.9-18.5-5.8-27.7-8.6
			c-46-14.4-93.5-29.2-140.6-42.4c-65.8-18.4-119.2-30.1-167.8-36.9c-119.7-16.6-222.3-1-281.5,42.9l-0.3-0.4
			c59.3-44,162-59.6,281.8-43c48.7,6.8,102,18.5,167.9,36.9c47.1,13.2,94.7,28,140.7,42.4c9.2,2.9,18.5,5.8,27.7,8.6
			c113.4,35.3,224.3,67.8,335.6,77c85.7,6.9,173.8,0.7,269.5-19c81.5-16.8,168.4-43.6,265.7-81.9c20.9-8.2,41.8-16.8,62.3-25.6
			c20.6-8.8,41.4-18.1,61.5-27c70.6-31.5,143.7-64,219.6-82c5.1-1.2,10.2-2.4,15.2-3.4c56.7-12,115.9-15.5,176.1-10.6
			c59.2,4.8,117.5,17.7,173.5,38.3l-0.2,0.5c-55.9-20.6-114.3-33.5-173.4-38.3c-60.1-4.9-119.3-1.3-175.9,10.6
			c-5,1.1-10.2,2.2-15.2,3.4c-75.9,18-148.9,50.5-219.5,82c-20.1,9-40.9,18.2-61.5,27c-20.5,8.8-41.4,17.4-62.3,25.6
			c-97.3,38.3-184.3,65.1-265.8,82C1700.7,479.4,1634.2,486.6,1569.8,486.6z"/>
	</g>
	<g>
		
			<linearGradient id="SVGID_35_" gradientUnits="userSpaceOnUse" x1="1057.9299" y1="779.9587" x2="1058.5942" y2="779.9587" gradientTransform="matrix(2200.7197 0 0 -251.2153 -2327285.75 196297.1719)">
			<stop  offset="0" style="stop-color:#307FE2;stop-opacity:0.3"/>
			<stop  offset="0.25" style="stop-color:#307FE2;stop-opacity:0.1"/>
			<stop  offset="0.5" style="stop-color:#307FE2;stop-opacity:0.3"/>
			<stop  offset="0.75" style="stop-color:#307FE2;stop-opacity:0.1"/>
			<stop  offset="1" style="stop-color:#307FE2;stop-opacity:0.3"/>
		</linearGradient>
		<path class="st35" d="M1587.5,485.5c-28.7,0-57-1.4-84.6-4.1c-116-11.7-232.4-48.6-335.2-81.2l-2.4-0.7
			c-54.1-17.2-110.1-34.9-165.8-50.2c-65-17.8-118.6-28.9-168.5-34.8c-120.6-14.3-224.6,5.4-285.2,54l-0.3-0.4
			c60.7-48.7,164.8-68.4,285.6-54.1c50,5.9,103.5,17,168.6,34.8c55.7,15.3,111.7,33,165.8,50.2l2.4,0.7
			c102.7,32.6,219.1,69.5,335.1,81.1c43.9,4.3,89.5,5.2,135.5,2.7c43.6-2.4,89-8,135-16.7c84-15.8,171.2-41.6,266.6-78.9
			c20.8-8.1,41.7-16.7,62.2-25.5c22.8-9.8,45.8-20.2,68-30.3c68.2-30.9,138.6-62.8,212-81.1c5-1.2,10.1-2.4,15.2-3.6
			c56.6-12.5,115.8-16.5,175.8-11.9c59.2,4.6,117.5,17.4,173.3,38.1l-0.2,0.5c-55.7-20.7-113.9-33.5-173.1-38.1
			c-59.9-4.6-119-0.6-175.6,11.9c-5.1,1.1-10.2,2.3-15.2,3.6c-73.3,18.2-143.7,50.1-211.9,81c-22.2,10.1-45.2,20.5-68.1,30.3
			c-20.4,8.8-41.4,17.4-62.2,25.5c-95.5,37.3-182.7,63.1-266.7,78.9c-46,8.6-91.4,14.3-135.1,16.7
			C1621.4,485,1604.4,485.5,1587.5,485.5z"/>
	</g>
	<g>
		
			<linearGradient id="SVGID_36_" gradientUnits="userSpaceOnUse" x1="1057.9304" y1="779.9524" x2="1058.5944" y2="779.9524" gradientTransform="matrix(2204.333 0 0 -248.3679 -2331111 194075.2031)">
			<stop  offset="0" style="stop-color:#307FE2;stop-opacity:0.3"/>
			<stop  offset="0.25" style="stop-color:#307FE2;stop-opacity:0.1"/>
			<stop  offset="0.5" style="stop-color:#307FE2;stop-opacity:0.3"/>
			<stop  offset="0.75" style="stop-color:#307FE2;stop-opacity:0.1"/>
			<stop  offset="1" style="stop-color:#307FE2;stop-opacity:0.3"/>
		</linearGradient>
		<path class="st36" d="M1605.8,484.5c-34.6,0-68.6-1.9-101.8-5.8c-110.5-13.1-221.2-48.8-328.2-83.3l-6.3-2
			c-59.2-19.1-112.7-36.1-168-50.8c-64.9-17.2-118.6-27.5-169.1-32.5c-121.8-11.9-227.2,11.8-289,65.1l-0.3-0.4
			c62-53.4,167.4-77.2,289.4-65.3c50.5,4.9,104.3,15.2,169.2,32.5c55.3,14.7,108.8,31.7,168,50.8l6.3,2
			c107,34.5,217.6,70.1,328.1,83.3c86.1,10.1,177.5,7,271.6-9c84.8-14.4,174.8-40,267.4-75.9c20.7-8.1,41.6-16.6,62.1-25.4
			c24.9-10.8,49.9-22.3,74-33.5c65.9-30.4,134-61.8,205-80.2c5-1.3,10-2.5,15.1-3.7c112.7-26.1,236.4-17.5,348.4,24.4l-0.2,0.5
			c-111.9-41.9-235.5-50.5-348.1-24.4c-5.1,1.2-10.2,2.4-15.1,3.7c-70.9,18.4-139,49.8-204.9,80.2c-24.2,11.2-49.2,22.7-74,33.5
			c-20.5,8.8-41.3,17.4-62.1,25.4c-92.7,35.9-182.7,61.5-267.5,75.9C1717.9,479.5,1661,484.5,1605.8,484.5z"/>
	</g>
	<g>
		
			<linearGradient id="SVGID_37_" gradientUnits="userSpaceOnUse" x1="1057.931" y1="779.9468" x2="1058.5946" y2="779.9468" gradientTransform="matrix(2208.0239 0 0 -245.8684 -2335018.5 192125.1094)">
			<stop  offset="0" style="stop-color:#307FE2;stop-opacity:0.3"/>
			<stop  offset="0.25" style="stop-color:#307FE2;stop-opacity:0.1"/>
			<stop  offset="0.5" style="stop-color:#307FE2;stop-opacity:0.3"/>
			<stop  offset="0.75" style="stop-color:#307FE2;stop-opacity:0.1"/>
			<stop  offset="1" style="stop-color:#307FE2;stop-opacity:0.3"/>
		</linearGradient>
		<path class="st37" d="M1625.1,484c-40.7,0-80.7-2.6-119.9-7.9c-105.6-14.4-210.8-49-312.5-82.5c-7.1-2.3-14.3-4.7-21.4-7
			c-50.7-16.6-109.6-35.6-167.8-50.6c-65.1-16.7-119-26.4-169.8-30.3c-57.7-4.5-114-0.6-162.9,11.3c-53.5,13-97.2,34.9-129.9,64.9
			l-0.4-0.4c63.2-58.1,170.1-86,293.2-76.4c50.8,3.9,104.8,13.5,169.9,30.3c58.2,15,117.2,34,167.8,50.6c7.1,2.3,14.3,4.7,21.4,7
			c101.7,33.4,206.9,68,312.4,82.4c167.4,22.6,349.3-3.2,540.9-76.7c20.7-8,41.6-16.5,62-25.4c27.1-11.8,54.2-24.6,80.5-36.9
			c63.4-29.8,128.9-60.6,197.2-79.1c5-1.4,10.1-2.7,15.1-3.9c112.7-27.3,236.3-19.2,347.9,22.8l-0.2,0.5
			c-111.5-42-235-50.1-347.6-22.8c-5,1.2-10.1,2.5-15.1,3.9c-68.3,18.5-133.8,49.3-197.1,79.1c-26.3,12.4-53.4,25.1-80.5,36.9
			c-20.4,8.9-41.2,17.4-62,25.4C1899.6,455.6,1758.4,484,1625.1,484z"/>
	</g>
	<g>
		
			<linearGradient id="SVGID_38_" gradientUnits="userSpaceOnUse" x1="1057.9315" y1="779.942" x2="1058.5948" y2="779.942" gradientTransform="matrix(2211.7158 0 0 -243.7091 -2338927 190440.6094)">
			<stop  offset="0" style="stop-color:#307FE2;stop-opacity:0.3"/>
			<stop  offset="0.25" style="stop-color:#307FE2;stop-opacity:0.1"/>
			<stop  offset="0.5" style="stop-color:#307FE2;stop-opacity:0.3"/>
			<stop  offset="0.75" style="stop-color:#307FE2;stop-opacity:0.1"/>
			<stop  offset="1" style="stop-color:#307FE2;stop-opacity:0.3"/>
		</linearGradient>
		<path class="st38" d="M1644.8,483.7c-47.1,0-93.4-3.4-138.5-10.3c-100.7-15.6-200.7-49.2-297.4-81.6c-11.7-3.9-23.9-8-35.8-12
			c-49.5-16.6-108.1-35.5-167.5-50.5c-63.4-16-119.1-25.1-170.4-28.1c-58.1-3.3-115,2.2-164.6,15.9c-54.2,15-98.6,39.1-132,71.6
			l-0.4-0.4c33.5-32.6,78-56.7,132.2-71.7c49.6-13.7,106.6-19.2,164.7-15.9c51.4,2.9,107.1,12.1,170.5,28.1
			c59.5,15,118.1,33.9,167.6,50.5c12,4,24.1,8.1,35.8,12c96.7,32.5,196.7,66.1,297.3,81.6c87.7,13.4,179.8,13.8,273.7,1.1
			c88.3-11.9,178.9-35.4,269.2-69.8c20.7-7.9,41.5-16.4,61.9-25.3c28.2-12.4,56.5-26,83.8-39.1c61.9-29.7,125.9-60.4,192.7-79.2
			c5-1.4,10-2.8,15.1-4c112.7-28.6,236-21,347.3,21.2l-0.2,0.5c-111.2-42.2-234.4-49.7-347-21.2c-5,1.3-10.1,2.6-15.1,4
			c-66.8,18.8-130.8,49.5-192.7,79.2c-27.3,13.1-55.6,26.7-83.8,39.1c-20.4,8.9-41.2,17.4-61.9,25.3c-90.3,34.4-181,57.9-269.3,69.8
			C1734.5,480.7,1689.3,483.7,1644.8,483.7z"/>
	</g>
	<g>
		
			<linearGradient id="SVGID_39_" gradientUnits="userSpaceOnUse" x1="1057.9319" y1="779.938" x2="1058.5951" y2="779.938" gradientTransform="matrix(2215.407 0 0 -241.9634 -2342834.75 189079.1875)">
			<stop  offset="0" style="stop-color:#307FE2;stop-opacity:0.3"/>
			<stop  offset="0.25" style="stop-color:#307FE2;stop-opacity:0.1"/>
			<stop  offset="0.5" style="stop-color:#307FE2;stop-opacity:0.3"/>
			<stop  offset="0.75" style="stop-color:#307FE2;stop-opacity:0.1"/>
			<stop  offset="1" style="stop-color:#307FE2;stop-opacity:0.3"/>
		</linearGradient>
		<path class="st39" d="M1664.7,484c-53.4,0-105.9-4.4-157.1-13.2c-96.2-16.5-191.3-49.3-283.2-80.9c-16.2-5.6-32.9-11.3-49.3-16.9
			c-49.1-16.6-107.4-35.6-167.5-50.4c-63-15.5-119-23.9-171.1-25.9c-58.6-2.2-116.1,4.8-166.2,20.4c-54.9,17-100,43.3-134.1,78.2
			l-0.4-0.4c34.2-35,79.4-61.4,134.4-78.4c50.2-15.5,107.7-22.6,166.4-20.4c52.1,2,108.1,10.4,171.2,25.9
			c60.1,14.8,118.4,33.7,167.6,50.4c16.5,5.6,33.2,11.3,49.3,16.9c91.9,31.7,187,64.4,283.2,80.9c88.3,15.1,180.7,17.2,274.7,6.2
			c89.8-10.6,180.6-33,270-66.8c20.7-7.8,41.5-16.3,61.7-25.2c30.1-13.3,60.1-28,89.2-42.2c59.8-29.3,121.6-59.5,186.3-78.5
			c6.1-1.8,10.7-3,15-4.2c112.8-29.8,236-22.8,346.8,19.5l-0.2,0.5c-110.7-42.3-233.8-49.3-346.5-19.5c-4.3,1.1-8.9,2.4-15,4.2
			c-64.6,18.9-126.4,49.2-186.2,78.4c-29.1,14.2-59.1,28.9-89.2,42.2c-20.3,8.9-41.1,17.4-61.8,25.2
			c-89.4,33.8-180.3,56.2-270.2,66.8C1742.8,481.7,1703.5,484,1664.7,484z"/>
	</g>
	<g>
		
			<linearGradient id="SVGID_40_" gradientUnits="userSpaceOnUse" x1="1057.9324" y1="779.9347" x2="1058.5955" y2="779.9347" gradientTransform="matrix(2219.0459 0 0 -240.5665 -2346687 187990.0938)">
			<stop  offset="0" style="stop-color:#307FE2;stop-opacity:0.3"/>
			<stop  offset="0.25" style="stop-color:#307FE2;stop-opacity:0.1"/>
			<stop  offset="0.5" style="stop-color:#307FE2;stop-opacity:0.3"/>
			<stop  offset="0.75" style="stop-color:#307FE2;stop-opacity:0.1"/>
			<stop  offset="1" style="stop-color:#307FE2;stop-opacity:0.3"/>
		</linearGradient>
		<path class="st40" d="M1684.5,484.5c-59.7,0-118.5-5.5-175.8-16.3c-92.1-17.6-182.8-49.6-270.5-80.6c-20.1-7.1-41-14.5-61.5-21.5
			c-52.1-17.9-108.5-36.3-167.3-50.2c-63-14.9-119.2-22.6-171.7-23.6c-59-1.1-117.1,7.5-167.8,24.8c-55.6,19-101.5,47.5-136.3,84.9
			l-0.4-0.4c34.9-37.4,80.8-66,136.5-85c50.8-17.3,108.9-25.9,168-24.8c52.6,0.9,108.8,8.6,171.8,23.6
			c58.8,13.9,115.2,32.4,167.3,50.2c20.5,7.1,41.4,14.4,61.5,21.5c87.7,30.9,178.4,62.9,270.4,80.6c89,16.9,181.8,20.7,275.7,11.3
			c91.2-9.1,182.3-30.6,270.9-63.8c20.7-7.7,41.4-16.2,61.7-25.2c31.6-14,63.1-29.8,93.5-45c58-29,118-58.9,180.7-78.1
			c4.7-1.4,9.8-2.9,15-4.3c56.9-15.3,115.7-21.5,174.5-18.4c58.9,3.1,116.6,15.4,171.7,36.5l-0.2,0.5
			c-55-21.1-112.7-33.4-171.5-36.5c-58.8-3.1-117.5,3.1-174.4,18.4c-5.2,1.4-10.3,2.9-15,4.3c-62.7,19.2-122.7,49.1-180.6,78.1
			c-30.5,15.2-61.9,30.9-93.5,45c-20.2,9-41,17.5-61.7,25.2c-88.6,33.2-179.8,54.7-271,63.8C1751.1,482.8,1717.7,484.5,1684.5,484.5
			z"/>
	</g>
	<g>
		
			<linearGradient id="SVGID_41_" gradientUnits="userSpaceOnUse" x1="1057.9329" y1="779.9323" x2="1058.5957" y2="779.9323" gradientTransform="matrix(2222.8691 0 0 -239.5806 -2350734.5 187221.9844)">
			<stop  offset="0" style="stop-color:#307FE2;stop-opacity:0.3"/>
			<stop  offset="0.25" style="stop-color:#307FE2;stop-opacity:0.1"/>
			<stop  offset="0.5" style="stop-color:#307FE2;stop-opacity:0.3"/>
			<stop  offset="0.75" style="stop-color:#307FE2;stop-opacity:0.1"/>
			<stop  offset="1" style="stop-color:#307FE2;stop-opacity:0.3"/>
		</linearGradient>
		<path class="st41" d="M1704.1,485.4c-65.8,0-130.8-6.6-194.1-19.8c-88.3-18.4-174.9-49.8-258.7-80.1
			c-23.8-8.6-48.4-17.6-72.8-26.1c-66.5-23.3-118-38.7-167.1-50.1c-62.3-14.4-118.6-21.5-172.4-21.5
			c-59.5,0.1-118.1,10.2-169.5,29.3c-56.4,21-103,51.8-138.5,91.6l-0.4-0.3c35.5-39.9,82.2-70.7,138.7-91.7
			c51.4-19.1,110.1-29.3,169.6-29.3c53.8,0,110.2,7,172.5,21.5c49.1,11.4,100.7,26.8,167.2,50.1c24.3,8.5,48.9,17.4,72.8,26.1
			c83.8,30.3,170.4,61.7,258.6,80.1c89.7,18.7,182.8,24.1,276.7,16.3c92.5-7.7,183.9-28.2,271.7-60.8c20.7-7.7,41.4-16.1,61.6-25.1
			c32.8-14.7,65.4-31.3,97-47.4c56.5-28.8,114.9-58.6,176.1-77.9c4.5-1.4,9.4-2.9,15-4.5c56.7-16,115.3-22.6,174.2-19.9
			c58.9,2.8,116.6,14.9,171.6,36.1l-0.2,0.5c-54.9-21.2-112.6-33.3-171.4-36.1c-58.8-2.8-117.4,3.9-174,19.9
			c-5.5,1.6-10.4,3.1-14.9,4.5c-61.2,19.3-119.6,49.1-176,77.8c-31.6,16.1-64.2,32.7-97,47.4c-20.2,9-40.9,17.5-61.6,25.1
			c-87.9,32.6-179.4,53.1-271.9,60.8C1759.2,484.2,1731.5,485.4,1704.1,485.4z"/>
	</g>
	<g>
		
			<linearGradient id="SVGID_42_" gradientUnits="userSpaceOnUse" x1="1057.9332" y1="779.9302" x2="1058.5961" y2="779.9302" gradientTransform="matrix(2226.4031 0 0 -238.6828 -2354476 186522.8125)">
			<stop  offset="0" style="stop-color:#307FE2;stop-opacity:0.3"/>
			<stop  offset="0.25" style="stop-color:#307FE2;stop-opacity:0.1"/>
			<stop  offset="0.5" style="stop-color:#307FE2;stop-opacity:0.3"/>
			<stop  offset="0.75" style="stop-color:#307FE2;stop-opacity:0.1"/>
			<stop  offset="1" style="stop-color:#307FE2;stop-opacity:0.3"/>
		</linearGradient>
		<path class="st42" d="M1724.4,486.5c-71.6,0-143-7.9-213.2-23.6c-84.9-19.2-167.8-50.1-248.1-80c-27.1-10.1-55.1-20.5-82.8-30.4
			c-178.5-63.4-272-70.6-339.9-69.2c-59.9,1.2-119.1,12.9-171.1,33.8c-57.1,23-104.4,56-140.6,98.2l-0.4-0.3
			c36.2-42.3,83.6-75.4,140.8-98.4c52.1-20.9,111.3-32.6,171.3-33.8c121.1-2.4,239.9,33.6,340.1,69.3c27.7,9.8,55.7,20.3,82.8,30.4
			c80.2,29.9,163.2,60.8,248,80c102.1,22.8,206.7,29.1,310.8,18.7c104.1-10.4,205.4-37.3,301-80c34.1-15.3,67.9-32.9,100.6-49.9
			c59.5-31,121.1-63,186.3-82.3c56.5-16.6,114.9-23.7,173.7-21.2c58.8,2.5,116.4,14.5,171.3,35.8l-0.2,0.5
			c-54.8-21.2-112.4-33.3-171.2-35.8c-58.8-2.5-117.1,4.6-173.6,21.2c-65.1,19.3-126.7,51.3-186.2,82.3
			c-32.7,17-66.5,34.6-100.6,49.9c-95.6,42.6-196.9,69.6-301.1,80C1789.6,484.9,1757,486.5,1724.4,486.5z"/>
	</g>
	<g>
		
			<linearGradient id="SVGID_43_" gradientUnits="userSpaceOnUse" x1="1057.9012" y1="779.9173" x2="1058.5837" y2="779.9173" gradientTransform="matrix(2178.5442 0 0 -233.3838 -2303817.25 182321.7344)">
			<stop  offset="0" style="stop-color:#307FE2;stop-opacity:0.3"/>
			<stop  offset="0.25" style="stop-color:#307FE2;stop-opacity:0.1"/>
			<stop  offset="0.5" style="stop-color:#307FE2;stop-opacity:0.3"/>
			<stop  offset="0.75" style="stop-color:#307FE2;stop-opacity:0.1"/>
			<stop  offset="1" style="stop-color:#307FE2;stop-opacity:0.3"/>
		</linearGradient>
		<path class="st43" d="M1787.1,418.7c-13.3,0-26.7-0.4-40.1-1.4c-116.9-8.1-228.2-53.2-335.7-96.8c-39.3-15.9-79.9-32.4-120.1-46.8
			c-117.7-42-240.5-69.4-364.9-81.4c-124.4-12-250.2-8.7-373.8,10l-0.1-0.5c123.6-18.6,249.4-22,373.9-10
			c124.5,12,247.3,39.4,365.1,81.4c40.3,14.4,80.9,30.9,120.2,46.8c107.5,43.6,218.7,88.6,335.6,96.7c139.6,9.7,277.1-33.8,410-75.8
			c26.6-8.4,54.1-17.1,81-25.2c97.4-29.2,176.8-44.8,250-49.1c44.1-2.6,86.1-0.8,124.6,5.3c42.3,6.7,82.2,18.9,118.4,36.2l-0.2,0.5
			c-36.2-17.3-76-29.5-118.3-36.2c-38.5-6.1-80.4-7.9-124.5-5.3c-73.1,4.3-152.5,19.8-249.8,49.1c-27,8.1-54.5,16.8-81,25.2
			C2037,379.5,1913.1,418.7,1787.1,418.7z"/>
	</g>
	<g>
		
			<linearGradient id="SVGID_44_" gradientUnits="userSpaceOnUse" x1="1057.8984" y1="779.8853" x2="1058.5826" y2="779.8853" gradientTransform="matrix(2171.946 0 0 -221.2427 -2296835.75 172845.875)">
			<stop  offset="0" style="stop-color:#307FE2;stop-opacity:0.3"/>
			<stop  offset="0.25" style="stop-color:#307FE2;stop-opacity:0.1"/>
			<stop  offset="0.5" style="stop-color:#307FE2;stop-opacity:0.3"/>
			<stop  offset="0.75" style="stop-color:#307FE2;stop-opacity:0.1"/>
			<stop  offset="1" style="stop-color:#307FE2;stop-opacity:0.3"/>
		</linearGradient>
		<path class="st44" d="M1785.5,412.8c-14.4,0-28.9-0.5-43.3-1.5c-118.2-8.3-230.7-51-339.6-92.4c-38.6-14.7-78.5-29.8-118-43.2
			c-117-39.4-238.7-65.3-361.7-76.9c-122.9-11.7-247.3-9.1-369.7,7.6l-0.1-0.5c122.4-16.7,246.8-19.2,369.8-7.6
			c123,11.7,244.7,37.6,361.8,77c39.5,13.4,79.4,28.5,118,43.2c108.8,41.4,221.4,84.1,339.5,92.4c139.8,9.8,277.3-30.4,410.2-69.2
			c26.3-7.7,53.5-15.6,80.2-23c97.3-27,176.7-41.3,249.7-45.1c44.1-2.3,86-0.5,124.5,5.3c42.3,6.4,82.2,17.8,118.4,34l-0.2,0.5
			c-36.2-16.2-76-27.6-118.3-34c-38.5-5.8-80.3-7.6-124.4-5.3c-73,3.8-152.3,18.1-249.6,45.1c-26.7,7.4-53.9,15.4-80.2,23
			C2033.3,376.9,1910.5,412.8,1785.5,412.8z"/>
	</g>
	<g>
		
			<linearGradient id="SVGID_45_" gradientUnits="userSpaceOnUse" x1="1057.8954" y1="779.8499" x2="1058.5815" y2="779.8499" gradientTransform="matrix(2165.323 0 0 -209.1669 -2289828 163420.9531)">
			<stop  offset="0" style="stop-color:#307FE2;stop-opacity:0.3"/>
			<stop  offset="0.25" style="stop-color:#307FE2;stop-opacity:0.1"/>
			<stop  offset="0.5" style="stop-color:#307FE2;stop-opacity:0.3"/>
			<stop  offset="0.75" style="stop-color:#307FE2;stop-opacity:0.1"/>
			<stop  offset="1" style="stop-color:#307FE2;stop-opacity:0.3"/>
		</linearGradient>
		<path class="st45" d="M1784.2,407c-15.6,0-31.3-0.5-47-1.6c-119.5-8.4-233.5-48.9-343.8-88c-37.8-13.4-76.9-27.3-115.6-39.7
			c-115-36.7-235.5-61.1-358.4-72.5c-122.4-11.3-245.4-9.6-365.5,5.2l-0.1-0.5c120.2-14.8,243.2-16.5,365.7-5.2
			c122.9,11.4,243.5,35.8,358.5,72.5c38.7,12.4,77.8,26.2,115.7,39.7c110.2,39.1,224.2,79.6,343.6,88c140.2,9.9,277.6-27,410.5-62.7
			c26-7,52.8-14.2,79.1-20.9c97.2-24.8,176.5-37.9,249.5-41.2c44.1-2,86-0.3,124.5,5.2c42.3,6,82.2,16.7,118.4,31.8l-0.2,0.5
			c-36.2-15.1-76-25.8-118.3-31.8c-38.5-5.4-80.3-7.2-124.4-5.2c-72.9,3.4-152.2,16.4-249.4,41.2c-26.3,6.7-53.2,13.9-79.1,20.9
			C2029.8,374.3,1908.2,407,1784.2,407z"/>
	</g>
	<g>
		
			<linearGradient id="SVGID_46_" gradientUnits="userSpaceOnUse" x1="1057.8911" y1="779.8102" x2="1058.5802" y2="779.8102" gradientTransform="matrix(2158.7778 0 0 -197.149 -2282902.5 154041.1719)">
			<stop  offset="0" style="stop-color:#307FE2;stop-opacity:0.3"/>
			<stop  offset="0.25" style="stop-color:#307FE2;stop-opacity:0.1"/>
			<stop  offset="0.5" style="stop-color:#307FE2;stop-opacity:0.3"/>
			<stop  offset="0.75" style="stop-color:#307FE2;stop-opacity:0.1"/>
			<stop  offset="1" style="stop-color:#307FE2;stop-opacity:0.3"/>
		</linearGradient>
		<path class="st46" d="M1783.6,401.2c-17.1,0-34.2-0.6-51.4-1.8c-120.9-8.6-236.4-46.7-348.1-83.6c-37-12.2-75.3-24.8-113.1-36.2
			c-113.8-34.2-233.3-57.1-355.1-68.1c-121-10.9-242.6-10-361.4,2.8l-0.1-0.5c118.9-12.8,240.5-13.8,361.5-2.8
			c121.9,11,241.4,33.9,355.2,68.1c37.8,11.3,76.1,24,113.1,36.2c111.7,36.9,227.1,75,347.9,83.5c140.3,10,277.9-23.6,410.9-56
			c25.6-6.3,52.1-12.7,78.1-18.7c97.2-22.5,176.4-34.3,249.3-37.3c44.1-1.8,86-0.1,124.5,5.1c42.3,5.6,82.2,15.6,118.3,29.6
			l-0.2,0.5c-36.2-14-75.9-23.9-118.2-29.6c-38.5-5.1-80.3-6.8-124.4-5.1c-72.9,2.9-152.1,14.7-249.2,37.2
			c-26,6-52.5,12.5-78.1,18.7C2026.5,371.8,1906.2,401.2,1783.6,401.2z"/>
	</g>
	<g>
		
			<linearGradient id="SVGID_47_" gradientUnits="userSpaceOnUse" x1="1057.8855" y1="779.7659" x2="1058.5787" y2="779.7659" gradientTransform="matrix(2152.2051 0 0 -185.2345 -2275947.75 144742.0312)">
			<stop  offset="0" style="stop-color:#307FE2;stop-opacity:0.3"/>
			<stop  offset="0.25" style="stop-color:#307FE2;stop-opacity:0.1"/>
			<stop  offset="0.5" style="stop-color:#307FE2;stop-opacity:0.3"/>
			<stop  offset="0.75" style="stop-color:#307FE2;stop-opacity:0.1"/>
			<stop  offset="1" style="stop-color:#307FE2;stop-opacity:0.3"/>
		</linearGradient>
		<path class="st47" d="M1783.8,395.4c-18.8,0-37.6-0.6-56.5-2c-122.6-8.8-239.9-44.6-353.3-79.2c-35.9-11-73-22.3-109.7-32.6
			c-112.6-31.6-231-53-351.8-63.7c-119.6-10.5-239.8-10.4-357.3,0.5l0-0.5c117.6-10.9,237.8-11,357.4-0.5
			c120.9,10.6,239.3,32.1,351.9,63.7c36.7,10.3,73.8,21.6,109.7,32.6c113.4,34.6,230.6,70.5,353.2,79.2
			c140.8,10.1,278.4-20.2,411.5-49.4c25.2-5.5,51.2-11.3,76.8-16.6c97-20.3,176.1-30.8,249-33.3c44.1-1.5,86,0.2,124.4,5
			c42.3,5.3,82.2,14.4,118.4,27.3l-0.2,0.5c-36.2-12.9-76-22.1-118.3-27.3c-38.5-4.8-80.3-6.4-124.4-5c-72.9,2.4-152,13-248.9,33.3
			c-25.6,5.3-51.6,11.1-76.8,16.6C2023.7,369.3,1905,395.4,1783.8,395.4z"/>
	</g>
	<g>
		
			<linearGradient id="SVGID_48_" gradientUnits="userSpaceOnUse" x1="1057.8778" y1="779.716" x2="1058.5767" y2="779.716" gradientTransform="matrix(2145.6079 0 0 -173.4491 -2268967.25 135543.7188)">
			<stop  offset="0" style="stop-color:#307FE2;stop-opacity:0.3"/>
			<stop  offset="0.25" style="stop-color:#307FE2;stop-opacity:0.1"/>
			<stop  offset="0.5" style="stop-color:#307FE2;stop-opacity:0.3"/>
			<stop  offset="0.75" style="stop-color:#307FE2;stop-opacity:0.1"/>
			<stop  offset="1" style="stop-color:#307FE2;stop-opacity:0.3"/>
		</linearGradient>
		<path class="st48" d="M1784.9,389.7c-20.8,0-41.6-0.7-62.5-2.2c-124.5-9-243.8-42.5-359.1-74.9c-34.6-9.7-70.3-19.8-105.5-29
			c-111.2-29-228.5-49-348.5-59.3c-118.1-10.1-236.9-10.7-353.3-1.8l0-0.5c116.4-8.9,235.3-8.3,353.4,1.8
			c120,10.3,237.3,30.2,348.6,59.3c35.3,9.2,71,19.3,105.6,29c115.3,32.4,234.5,65.9,359,74.9c141.3,10.1,279.1-16.8,412.4-42.9
			c24.6-4.8,50.1-9.8,75.1-14.5c97.1-18.1,176.2-27.4,248.8-29.4c93.5-2.6,172.9,7.2,242.8,30l-0.2,0.5
			c-69.8-22.8-149.2-32.6-242.6-30c-72.6,2-151.6,11.3-248.7,29.4c-25,4.7-50.5,9.6-75.1,14.5
			C2021.3,366.8,1904.4,389.7,1784.9,389.7z"/>
	</g>
	<g>
		
			<linearGradient id="SVGID_49_" gradientUnits="userSpaceOnUse" x1="1057.8667" y1="779.6597" x2="1058.5741" y2="779.6597" gradientTransform="matrix(2139.0369 0 0 -161.8332 -2262014.5 126477.625)">
			<stop  offset="0" style="stop-color:#307FE2;stop-opacity:0.3"/>
			<stop  offset="0.25" style="stop-color:#307FE2;stop-opacity:0.1"/>
			<stop  offset="0.5" style="stop-color:#307FE2;stop-opacity:0.3"/>
			<stop  offset="0.75" style="stop-color:#307FE2;stop-opacity:0.1"/>
			<stop  offset="1" style="stop-color:#307FE2;stop-opacity:0.3"/>
		</linearGradient>
		<path class="st49" d="M1787.6,384c-23.3,0-46.7-0.8-70.1-2.5c-126.8-9.2-248.3-40.5-365.8-70.6c-33-8.5-67-17.2-100.6-25.3
			c-109.7-26.5-225.8-45-345.1-54.9c-116.4-9.7-233.9-11.1-349.3-4.1l0-0.5c115.4-6.9,232.9-5.6,349.4,4.1
			c119.3,9.9,235.5,28.4,345.2,54.9c33.6,8.1,67.7,16.9,100.7,25.3c117.5,30.2,239,61.4,365.7,70.6c141.7,10.3,279.6-13.3,413-36.2
			c24.2-4.1,49.3-8.4,73.9-12.4c97.2-15.8,176.2-23.9,248.7-25.4c93.5-2,172.9,7.1,242.6,27.7l-0.1,0.5
			c-69.7-20.6-149-29.7-242.5-27.7c-72.4,1.6-151.4,9.6-248.6,25.4c-24.6,4-49.7,8.3-73.9,12.4C2019.2,364.4,1904.8,384,1787.6,384z
			"/>
	</g>
	<g>
		
			<linearGradient id="SVGID_50_" gradientUnits="userSpaceOnUse" x1="1057.8496" y1="779.5961" x2="1058.5704" y2="779.5961" gradientTransform="matrix(2132.4141 0 0 -150.4402 -2255006.75 117585.4844)">
			<stop  offset="0" style="stop-color:#307FE2;stop-opacity:0.3"/>
			<stop  offset="0.25" style="stop-color:#307FE2;stop-opacity:0.1"/>
			<stop  offset="0.5" style="stop-color:#307FE2;stop-opacity:0.3"/>
			<stop  offset="0.75" style="stop-color:#307FE2;stop-opacity:0.1"/>
			<stop  offset="1" style="stop-color:#307FE2;stop-opacity:0.3"/>
		</linearGradient>
		<path class="st50" d="M1792.2,378.4c-26.4,0-53-0.9-79.7-2.8c-129.2-9.5-253.2-38.3-373.1-66.3c-31.1-7.3-63.3-14.8-95.1-21.8
			c-108.1-24-223.1-41-341.8-50.6c-114.5-9.2-230.6-11.4-345.2-6.4l0-0.5c114.6-5,230.7-2.8,345.3,6.4
			c118.7,9.6,233.8,26.6,341.9,50.6c31.8,7,64,14.5,95.1,21.8c119.9,27.9,243.8,56.8,373,66.2c142.6,10.4,281.1-9.9,415-29.6
			c23.3-3.4,47.5-7,71.2-10.3c97.1-13.6,176-20.4,248.3-21.5c93.5-1.4,172.9,6.9,242.7,25.4l-0.1,0.5
			c-69.7-18.5-149.1-26.8-242.5-25.4c-72.3,1.1-151.2,7.9-248.3,21.5c-23.7,3.3-47.8,6.9-71.2,10.3
			C2018.7,361.9,1906.8,378.4,1792.2,378.4z"/>
	</g>
	<g>
		
			<linearGradient id="SVGID_51_" gradientUnits="userSpaceOnUse" x1="1057.822" y1="779.5253" x2="1058.5647" y2="779.5253" gradientTransform="matrix(2125.842 0 0 -139.5081 -2248053 109052.9609)">
			<stop  offset="0" style="stop-color:#307FE2;stop-opacity:0.3"/>
			<stop  offset="0.25" style="stop-color:#307FE2;stop-opacity:0.1"/>
			<stop  offset="0.5" style="stop-color:#307FE2;stop-opacity:0.3"/>
			<stop  offset="0.75" style="stop-color:#307FE2;stop-opacity:0.1"/>
			<stop  offset="1" style="stop-color:#307FE2;stop-opacity:0.3"/>
		</linearGradient>
		<path class="st51" d="M1799.7,372.9c-30.5,0-61.2-1-92.1-3.3c-133.3-9.8-261.3-36.6-385.1-62.5c-27.8-5.8-56.6-11.8-84.9-17.6
			c-207.4-42.2-442.4-61.2-679.7-55l0-0.5c237.3-6.2,472.4,12.8,679.8,55c28.3,5.7,57.1,11.7,84.9,17.6
			c123.7,25.9,251.7,52.7,385,62.5c143.7,10.6,282.9-6.5,417.5-22.9c22.3-2.7,45.3-5.5,68-8.2c145.4-17,332.7-31.7,490.8,5.6
			l-0.1,0.5c-158-37.2-345.2-22.5-490.6-5.5c-22.7,2.6-45.7,5.5-68,8.2C2019.5,359.6,1910.9,372.9,1799.7,372.9z"/>
	</g>
	<g>
		
			<linearGradient id="SVGID_52_" gradientUnits="userSpaceOnUse" x1="1057.7777" y1="779.4462" x2="1058.556" y2="779.4462" gradientTransform="matrix(2119.27 0 0 -129.0384 -2241099 100881.1641)">
			<stop  offset="0" style="stop-color:#307FE2;stop-opacity:0.3"/>
			<stop  offset="0.25" style="stop-color:#307FE2;stop-opacity:0.1"/>
			<stop  offset="0.5" style="stop-color:#307FE2;stop-opacity:0.3"/>
			<stop  offset="0.75" style="stop-color:#307FE2;stop-opacity:0.1"/>
			<stop  offset="1" style="stop-color:#307FE2;stop-opacity:0.3"/>
		</linearGradient>
		<path class="st52" d="M1811.3,367.5c-35.9,0-72.2-1.2-108.7-3.9c-138.8-10.3-272.2-35.1-401.1-59.1c-23.1-4.3-47.1-8.8-70.6-13.1
			c-200.6-36.6-433.1-54.8-672.3-52.8l0-0.5c239.2-2,471.7,16.2,672.4,52.8c23.6,4.3,47.5,8.7,70.6,13.1
			c128.9,24,262.2,48.8,401,59.1c144.9,10.7,285-3,420.5-16.2c21.1-2.1,42.9-4.2,64.3-6.2c145.6-13.6,333-25,490.5,7.2l-0.1,0.5
			c-157.5-32.2-344.8-20.8-490.3-7.2c-21.4,2-43.2,4.1-64.3,6.2C2021.8,357.3,1917.9,367.5,1811.3,367.5z"/>
	</g>
	<g>
		
			<linearGradient id="SVGID_53_" gradientUnits="userSpaceOnUse" x1="1057.7833" y1="779.3641" x2="1058.5577" y2="779.3641" gradientTransform="matrix(2112.542 0 0 -119.7158 -2233980 93604.4062)">
			<stop  offset="0" style="stop-color:#307FE2;stop-opacity:0.3"/>
			<stop  offset="0.25" style="stop-color:#307FE2;stop-opacity:0.1"/>
			<stop  offset="0.5" style="stop-color:#307FE2;stop-opacity:0.3"/>
			<stop  offset="0.75" style="stop-color:#307FE2;stop-opacity:0.1"/>
			<stop  offset="1" style="stop-color:#307FE2;stop-opacity:0.3"/>
		</linearGradient>
		<path class="st53" d="M1829.9,362.3c-43.6,0-87.7-1.4-132.3-4.7c-148.1-11.1-290.1-34.3-427.4-56.8c-15.3-2.5-30.5-5-45.8-7.5
			c-192.5-31.2-416.2-48.3-665-50.8l0-0.5c248.7,2.4,472.5,19.5,665,50.8c15.3,2.5,30.6,5,45.8,7.5
			c137.3,22.5,279.3,45.7,427.4,56.8c146.1,10.9,287.1,0.6,423.4-9.3c19.9-1.5,40.5-2.9,60.7-4.4c61.7-4.3,154.5-10,247.7-9.7
			c93.7,0.3,173.1,6.3,242.6,18.4l-0.1,0.5c-69.5-12.1-148.8-18.1-242.5-18.4c-93.2-0.3-185.9,5.4-247.6,9.6
			c-20.2,1.4-40.8,2.9-60.7,4.4C2026.3,355.2,1929.3,362.3,1829.9,362.3z"/>
	</g>
	<g>
		
			<linearGradient id="SVGID_54_" gradientUnits="userSpaceOnUse" x1="1057.8386" y1="779.2746" x2="1058.5698" y2="779.2746" gradientTransform="matrix(2106.1008 0 0 -110.9721 -2227164.75 86779.6328)">
			<stop  offset="0" style="stop-color:#307FE2;stop-opacity:0.3"/>
			<stop  offset="0.25" style="stop-color:#307FE2;stop-opacity:0.1"/>
			<stop  offset="0.5" style="stop-color:#307FE2;stop-opacity:0.3"/>
			<stop  offset="0.75" style="stop-color:#307FE2;stop-opacity:0.1"/>
			<stop  offset="1" style="stop-color:#307FE2;stop-opacity:0.3"/>
		</linearGradient>
		<path class="st54" d="M1862.1,357.6c-55.7,0-112.1-1.6-169.4-5.9c-169-12.8-331.7-35.9-475.2-56.3
			c-179.7-25.6-388.6-41-657.5-48.7l0-0.5c268.9,7.6,477.9,23.1,657.6,48.7c143.5,20.4,306.2,43.5,475.2,56.3
			c149.6,11.3,293.7,4.3,433-2.5c16.5-0.8,33.6-1.6,50.4-2.4c155.9-7.3,335.9-11.7,489.9,10.5l-0.1,0.5
			c-154-22.2-334-17.7-489.8-10.5c-16.8,0.8-33.9,1.6-50.4,2.4C2039.8,353.3,1951.9,357.6,1862.1,357.6z"/>
	</g>
	<g>
		
			<linearGradient id="SVGID_55_" gradientUnits="userSpaceOnUse" x1="1057.8712" y1="779.2736" x2="1058.5803" y2="779.2736" gradientTransform="matrix(2099.4771 0 0 -110.889 -2220156 86718.7422)">
			<stop  offset="0" style="stop-color:#307FE2;stop-opacity:0.3"/>
			<stop  offset="0.25" style="stop-color:#307FE2;stop-opacity:0.1"/>
			<stop  offset="0.5" style="stop-color:#307FE2;stop-opacity:0.3"/>
			<stop  offset="0.75" style="stop-color:#307FE2;stop-opacity:0.1"/>
			<stop  offset="1" style="stop-color:#307FE2;stop-opacity:0.3"/>
		</linearGradient>
		<path class="st55" d="M2660.1,361.6c-150-17.1-323.9-15.9-489.5-12c-12.2,0.3-24.4,0.6-36.6,0.9c-143.4,3.4-291.7,7-446.1-4.7
			c-146-11.1-297.6-26.5-477-48.4c-209.1-25.6-441.7-36.7-647-46.5l-3.1-0.1l0-0.5l3.1,0.1c205.3,9.8,438,20.9,647.1,46.5
			c179.4,21.9,331,37.3,477,48.4c154.4,11.7,302.7,8.1,446,4.7c12.2-0.3,24.4-0.6,36.6-0.9c165.7-3.8,339.6-5,489.6,12L2660.1,361.6
			z"/>
	</g>
	<g>
		
			<linearGradient id="SVGID_56_" gradientUnits="userSpaceOnUse" x1="1057.8904" y1="779.2776" x2="1058.593" y2="779.2776" gradientTransform="matrix(2092.9331 0 0 -111.257 -2213231.75 87010.1719)">
			<stop  offset="0" style="stop-color:#307FE2;stop-opacity:0.3"/>
			<stop  offset="0.25" style="stop-color:#307FE2;stop-opacity:0.1"/>
			<stop  offset="0.5" style="stop-color:#307FE2;stop-opacity:0.3"/>
			<stop  offset="0.75" style="stop-color:#307FE2;stop-opacity:0.1"/>
			<stop  offset="1" style="stop-color:#307FE2;stop-opacity:0.3"/>
		</linearGradient>
		<path class="st56" d="M2654.2,366c-150.2-12.5-324.1-13.6-489.4-13.7l-12,0c-150.9-0.1-306.9-0.1-470-12.6l-18.4-1.4
			c-158.8-12.2-308.9-23.7-460.3-39.1c-142.9-14.5-295.9-23.5-443.8-32.2c-66-3.9-134.2-7.9-199-12.3l0-0.5
			c64.8,4.4,133,8.4,199,12.3c147.9,8.7,300.9,17.7,443.9,32.2c151.4,15.5,301.5,26.9,460.3,39.1l18.4,1.4
			c163.1,12.4,319.1,12.5,470,12.6l12,0c165.3,0.1,339.2,1.2,489.4,13.7L2654.2,366z"/>
	</g>
	<g>
		
			<linearGradient id="SVGID_57_" gradientUnits="userSpaceOnUse" x1="1057.9042" y1="779.2816" x2="1058.6162" y2="779.2816" gradientTransform="matrix(2086.3091 0 0 -111.623 -2206223 87300.0625)">
			<stop  offset="0" style="stop-color:#307FE2;stop-opacity:0.3"/>
			<stop  offset="0.25" style="stop-color:#307FE2;stop-opacity:0.1"/>
			<stop  offset="0.5" style="stop-color:#307FE2;stop-opacity:0.3"/>
			<stop  offset="0.75" style="stop-color:#307FE2;stop-opacity:0.1"/>
			<stop  offset="1" style="stop-color:#307FE2;stop-opacity:0.3"/>
		</linearGradient>
		<path class="st57" d="M2648.3,370.4c-131.1-6.9-279.9-10.4-423.7-13.7c-22.1-0.5-44-1-65.4-1.5c-150.1-3.6-310.9-8.2-481.3-21.3
			c-78.9-6.1-156.4-10.9-231.4-15.5c-85.5-5.3-166.2-10.3-249.1-17c-96.6-7.9-199.3-13.9-298.7-19.6
			C786.4,275,670.3,268.3,562,258.8l0-0.5c108.2,9.5,224.4,16.3,336.7,22.8c99.4,5.8,202.2,11.8,298.7,19.6
			c82.9,6.7,163.6,11.7,249.1,17c75,4.6,152.5,9.4,231.4,15.5c170.4,13.1,331.2,17.7,481.3,21.3c21.4,0.5,43.3,1,65.4,1.5
			c143.8,3.4,292.6,6.8,423.7,13.7L2648.3,370.4z"/>
	</g>
	<g>
		
			<linearGradient id="SVGID_58_" gradientUnits="userSpaceOnUse" x1="1057.92" y1="779.2859" x2="1058.6702" y2="779.2859" gradientTransform="matrix(2079.7632 0 0 -112.016 -2199296.75 87611.1484)">
			<stop  offset="0" style="stop-color:#307FE2;stop-opacity:0.3"/>
			<stop  offset="0.25" style="stop-color:#307FE2;stop-opacity:0.1"/>
			<stop  offset="0.5" style="stop-color:#307FE2;stop-opacity:0.3"/>
			<stop  offset="0.75" style="stop-color:#307FE2;stop-opacity:0.1"/>
			<stop  offset="1" style="stop-color:#307FE2;stop-opacity:0.3"/>
		</linearGradient>
		<path class="st58" d="M2642.4,374.9c-160.8-3.6-339-9.8-488.9-16.9c-161.8-7.7-319-17.6-480.6-30.1
			c-96.8-7.5-191.5-11.4-283.1-15.1c-65.3-2.7-132.8-5.4-199.2-9.5c-61.4-3.8-126.2-7-188.8-10.1c-146.9-7.4-298.8-15-439.2-30.3
			l0.1-0.5c140.4,15.3,292.3,22.9,439.2,30.3c62.6,3.1,127.3,6.4,188.8,10.1c66.4,4,133.9,6.8,199.2,9.5
			c91.6,3.7,186.2,7.6,283.1,15.1c161.6,12.5,318.8,22.3,480.6,30.1c149.9,7.2,328,13.3,488.8,16.9L2642.4,374.9z"/>
	</g>
	<g>
		
			<linearGradient id="SVGID_59_" gradientUnits="userSpaceOnUse" x1="1057.9321" y1="779.2911" x2="1058.7144" y2="779.2911" gradientTransform="matrix(2073.1667 0 0 -112.501 -2192317 87993.8047)">
			<stop  offset="0" style="stop-color:#307FE2;stop-opacity:0.3"/>
			<stop  offset="0.25" style="stop-color:#307FE2;stop-opacity:0.1"/>
			<stop  offset="0.5" style="stop-color:#307FE2;stop-opacity:0.3"/>
			<stop  offset="0.75" style="stop-color:#307FE2;stop-opacity:0.1"/>
			<stop  offset="1" style="stop-color:#307FE2;stop-opacity:0.3"/>
		</linearGradient>
		<path class="st59" d="M2607.3,379.3c-129.7,0-291.3-6.5-459.4-18.7c-90.8-6.6-179.6-14-273.6-21.9
			c-66.8-5.6-135.9-11.4-206.3-16.9c-105.3-8.2-208.1-10.2-307.6-12.1c-57.8-1.1-117.6-2.2-176.4-4.6c-35-1.4-71.5-2.8-106.8-4.1
			C905,294.8,727,288.2,563.3,266.8l0.1-0.5c163.6,21.4,341.6,27.9,513.8,34.3c35.3,1.3,71.8,2.6,106.8,4.1
			c58.8,2.4,118.6,3.5,176.4,4.6c99.4,1.9,202.3,3.8,307.6,12.1c70.5,5.5,139.5,11.3,206.3,16.9c94,7.9,182.8,15.3,273.6,21.9
			c180.9,13.1,354.4,19.6,488.6,18.6l0,0.5C2627,379.3,2617.2,379.3,2607.3,379.3z"/>
	</g>
	<g>
		
			<linearGradient id="SVGID_60_" gradientUnits="userSpaceOnUse" x1="1057.9191" y1="779.3115" x2="1058.6371" y2="779.3115" gradientTransform="matrix(2066.49 0 0 -114.4152 -2185252.25 89492.75)">
			<stop  offset="0" style="stop-color:#307FE2;stop-opacity:0.3"/>
			<stop  offset="0.25" style="stop-color:#307FE2;stop-opacity:0.1"/>
			<stop  offset="0.5" style="stop-color:#307FE2;stop-opacity:0.3"/>
			<stop  offset="0.75" style="stop-color:#307FE2;stop-opacity:0.1"/>
			<stop  offset="1" style="stop-color:#307FE2;stop-opacity:0.3"/>
		</linearGradient>
		<path class="st60" d="M2544.3,385.2c-114.7,0-251.7-7.4-402.1-21.7c-59.3-5.7-119.6-12.1-178-18.3c-96.9-10.3-197-21-301.2-29.2
			c-111.1-8.7-219.4-8.4-324.2-8.1c-52.9,0.2-107.7,0.3-161.6-0.7c-13.1-0.3-26.3-0.5-39.5-0.8c-183.5-3.6-391.4-7.6-573.7-35.6
			l0.1-0.5c182.3,28,390.2,32,573.7,35.6c13.3,0.3,26.5,0.5,39.5,0.8c53.9,1,108.6,0.9,161.6,0.7c104.8-0.3,213.2-0.7,324.2,8.1
			c104.1,8.2,204.3,18.9,301.2,29.2c58.3,6.2,118.6,12.7,177.9,18.3c190.2,18.2,359,25.2,488.3,20.2l0,0.5
			C2603.5,384.6,2574.7,385.2,2544.3,385.2z"/>
	</g>
	<g>
		
			<linearGradient id="SVGID_61_" gradientUnits="userSpaceOnUse" x1="1057.9136" y1="779.3351" x2="1058.6041" y2="779.3351" gradientTransform="matrix(2060.0759 0 0 -116.7481 -2178465.75 91318.8984)">
			<stop  offset="0" style="stop-color:#307FE2;stop-opacity:0.3"/>
			<stop  offset="0.25" style="stop-color:#307FE2;stop-opacity:0.1"/>
			<stop  offset="0.5" style="stop-color:#307FE2;stop-opacity:0.3"/>
			<stop  offset="0.75" style="stop-color:#307FE2;stop-opacity:0.1"/>
			<stop  offset="1" style="stop-color:#307FE2;stop-opacity:0.3"/>
		</linearGradient>
		<path class="st61" d="M2511.2,391.6c-107.3,0-232.7-8.5-374.5-25.4c-49.4-5.9-99.6-12.5-148.1-18.9c-106.2-14-216-28.4-330.4-37.4
			c-115.1-9.1-227.4-6.3-336-3.5c-49.6,1.3-101,2.6-151.5,2.7c-182.7,0.1-410,0.3-606-34.2l0.1-0.5c196,34.5,423.3,34.4,605.9,34.2
			c50.6-0.1,101.9-1.4,151.5-2.7c108.6-2.8,221-5.6,336.1,3.5c114.4,9,224.2,23.4,330.4,37.4c48.5,6.4,98.7,13,148.1,18.9
			c195.2,23.3,359.4,30.7,488,21.8l0,0.5C2589.5,390.4,2551.6,391.6,2511.2,391.6z"/>
	</g>
	<g>
		
			<linearGradient id="SVGID_62_" gradientUnits="userSpaceOnUse" x1="1057.9113" y1="779.3607" x2="1058.5897" y2="779.3607" gradientTransform="matrix(2053.4248 0 0 -119.3583 -2171428 93361.4609)">
			<stop  offset="0" style="stop-color:#307FE2;stop-opacity:0.3"/>
			<stop  offset="0.25" style="stop-color:#307FE2;stop-opacity:0.1"/>
			<stop  offset="0.5" style="stop-color:#307FE2;stop-opacity:0.3"/>
			<stop  offset="0.75" style="stop-color:#307FE2;stop-opacity:0.1"/>
			<stop  offset="1" style="stop-color:#307FE2;stop-opacity:0.3"/>
		</linearGradient>
		<path class="st62" d="M2490.7,398.2c-103.5,0-223.9-9.8-359.7-29.3c-44.5-6.4-89.6-13.5-133.2-20.3
			c-110.6-17.3-225-35.2-344.6-44.7c-117.9-9.4-233.1-3.9-344.4,1.4c-47.5,2.3-96.5,4.6-144.9,5.7c-96.5,2.1-199.7,3.5-301-0.3
			c-114.7-4.3-212-14.7-297.5-31.8l0.1-0.5c85.5,17.1,182.7,27.5,297.4,31.8c101.3,3.8,204.6,2.4,301,0.3
			c48.3-1.1,97.4-3.5,144.9-5.7c111.4-5.3,226.5-10.8,344.5-1.4c119.6,9.5,234,27.4,344.6,44.7c43.7,6.8,88.8,13.9,133.2,20.3
			c196.3,28.2,360.4,36.1,487.7,23.4l0.1,0.5C2579.6,396.3,2536.8,398.2,2490.7,398.2z"/>
	</g>
	<g>
		
			<linearGradient id="SVGID_63_" gradientUnits="userSpaceOnUse" x1="1057.9099" y1="779.3859" x2="1058.5823" y2="779.3859" gradientTransform="matrix(2046.8281 0 0 -122.0686 -2164448 95482.2578)">
			<stop  offset="0" style="stop-color:#307FE2;stop-opacity:0.3"/>
			<stop  offset="0.25" style="stop-color:#307FE2;stop-opacity:0.1"/>
			<stop  offset="0.5" style="stop-color:#307FE2;stop-opacity:0.3"/>
			<stop  offset="0.75" style="stop-color:#307FE2;stop-opacity:0.1"/>
			<stop  offset="1" style="stop-color:#307FE2;stop-opacity:0.3"/>
		</linearGradient>
		<path class="st63" d="M2474.2,405c-32.9,0-67.5-1.2-103.5-3.5c-74.1-4.8-156.7-14.8-245.4-29.7c-41.6-7-83.8-14.7-124.6-22.1
			c-113.1-20.6-230-41.9-352.5-51.7c-120.1-9.6-237.5-1.5-351,6.5c-45.9,3.2-93.3,6.5-140.1,8.6c-198.9,8.7-408.3,11.1-591.2-30.1
			l0.1-0.5c120.1,27.1,251.7,35.3,384.2,35.3c69.2,0,138.6-2.2,206.9-5.2c46.8-2.1,94.2-5.4,140.1-8.6c113.5-7.9,230.9-16.1,351-6.5
			c122.6,9.8,239.5,31.1,352.6,51.7c40.8,7.4,83,15.1,124.6,22.1c88.7,14.9,171.3,24.9,245.3,29.7c91,6,172.4,4.4,242.1-4.7l0.1,0.5
			C2570.8,402.2,2524.4,405,2474.2,405z"/>
	</g>
	<g>
		
			<linearGradient id="SVGID_64_" gradientUnits="userSpaceOnUse" x1="1057.9091" y1="779.4105" x2="1058.5779" y2="779.4105" gradientTransform="matrix(2040.256 0 0 -124.8144 -2157494 97630.7266)">
			<stop  offset="0" style="stop-color:#307FE2;stop-opacity:0.3"/>
			<stop  offset="0.25" style="stop-color:#307FE2;stop-opacity:0.1"/>
			<stop  offset="0.5" style="stop-color:#307FE2;stop-opacity:0.3"/>
			<stop  offset="0.75" style="stop-color:#307FE2;stop-opacity:0.1"/>
			<stop  offset="1" style="stop-color:#307FE2;stop-opacity:0.3"/>
		</linearGradient>
		<path class="st64" d="M2461.5,411.8c-30.8,0-63-1.2-96.5-3.6c-74.7-5.4-154.9-16.4-245.1-33.7c-39.8-7.6-80.2-16-119.2-24.1
			c-114.5-23.8-232.9-48.4-357.3-58.4c-122.5-9.9-242.2,1.1-358,11.7c-44.2,4.1-89.8,8.3-134.9,11.2c-185,12.1-399,18.2-583.9-28
			l0.1-0.5c184.8,46.2,398.8,40.1,583.8,28c45-2.9,90.7-7.1,134.8-11.2c115.8-10.6,235.5-21.7,358.1-11.7
			c124.4,10,242.8,34.6,357.3,58.4c39,8.1,79.4,16.5,119.2,24.1c90.2,17.3,170.3,28.3,245,33.6c90.9,6.5,172.3,4.2,241.9-7l0.1,0.5
			C2563.1,408.2,2514.3,411.8,2461.5,411.8z"/>
	</g>
	<g>
		
			<linearGradient id="SVGID_65_" gradientUnits="userSpaceOnUse" x1="1057.908" y1="779.5004" x2="1058.5757" y2="779.5004" gradientTransform="matrix(2033.6061 0 0 -136.0598 -2150457.75 106408.9609)">
			<stop  offset="0" style="stop-color:#307FE2;stop-opacity:0.3"/>
			<stop  offset="0.25" style="stop-color:#307FE2;stop-opacity:0.1"/>
			<stop  offset="0.5" style="stop-color:#307FE2;stop-opacity:0.3"/>
			<stop  offset="0.75" style="stop-color:#307FE2;stop-opacity:0.1"/>
			<stop  offset="1" style="stop-color:#307FE2;stop-opacity:0.3"/>
		</linearGradient>
		<path class="st65" d="M2450.3,418.6c-29.2,0-59.7-1.2-91.4-3.7c-74.7-5.8-154.8-18.1-244.9-37.6c-38.2-8.3-76.9-17.3-114.3-26
			c-115.7-27-235.4-55-361.4-65.2c-124.7-10.1-246.6,3.8-364.4,17.2c-42.6,4.9-86.7,9.9-130.2,13.7c-114.8,10-207.2,13.7-290.8,11.8
			c-109.6-2.6-203.1-14.9-285.6-37.7l0.1-0.5c82.5,22.8,175.9,35.1,285.5,37.7c83.6,2,176-1.8,290.8-11.8
			c43.4-3.8,87.5-8.8,130.1-13.7c117.9-13.4,239.8-27.3,364.5-17.2c126.1,10.2,245.7,38.2,361.5,65.2c37.4,8.7,76.1,17.8,114.3,26
			c90.1,19.5,170.2,31.8,244.8,37.6c91,7.1,172.4,4,242-9.3l0.1,0.5C2555.7,414.2,2505.2,418.6,2450.3,418.6z"/>
	</g>
	<g>
		
			<linearGradient id="SVGID_66_" gradientUnits="userSpaceOnUse" x1="1057.907" y1="779.5845" x2="1058.574" y2="779.5845" gradientTransform="matrix(2027.0879 0 0 -148.5536 -2143560.75 116161)">
			<stop  offset="0" style="stop-color:#307FE2;stop-opacity:0.3"/>
			<stop  offset="0.25" style="stop-color:#307FE2;stop-opacity:0.1"/>
			<stop  offset="0.5" style="stop-color:#307FE2;stop-opacity:0.3"/>
			<stop  offset="0.75" style="stop-color:#307FE2;stop-opacity:0.1"/>
			<stop  offset="1" style="stop-color:#307FE2;stop-opacity:0.3"/>
		</linearGradient>
		<path class="st66" d="M2440.6,425.4c-28,0-57.2-1.3-87.5-3.8c-74.5-6.3-154.6-19.9-244.8-41.5c-37.3-9-75.1-18.8-111.6-28.3
			c-116.3-30.2-236.5-61.4-363.4-71.7c-126.6-10.4-250.6,6.5-370.5,22.8c-41.2,5.6-83.9,11.4-125.9,16
			c-112.6,12.3-203.9,17.3-287.4,15.8c-108.2-2-200.3-14.9-281.6-39.6l0.2-0.5c81.3,24.7,173.3,37.6,281.5,39.6
			c83.5,1.5,174.8-3.5,287.4-15.8c42-4.6,84.6-10.4,125.8-16c119.9-16.3,243.9-33.2,370.6-22.8c126.9,10.3,247.2,41.6,363.5,71.7
			c36.5,9.5,74.3,19.3,111.6,28.2c90.2,21.7,170.2,35.3,244.7,41.5c91.1,7.7,172.5,3.8,241.9-11.6l0.1,0.5
			C2548.8,420.3,2497.1,425.4,2440.6,425.4z"/>
	</g>
	<g>
		
			<linearGradient id="SVGID_67_" gradientUnits="userSpaceOnUse" x1="1057.906" y1="779.656" x2="1058.5726" y2="779.656" gradientTransform="matrix(2020.4901 0 0 -161.1291 -2136579.75 125976.7109)">
			<stop  offset="0" style="stop-color:#307FE2;stop-opacity:0.3"/>
			<stop  offset="0.25" style="stop-color:#307FE2;stop-opacity:0.1"/>
			<stop  offset="0.5" style="stop-color:#307FE2;stop-opacity:0.3"/>
			<stop  offset="0.75" style="stop-color:#307FE2;stop-opacity:0.1"/>
			<stop  offset="1" style="stop-color:#307FE2;stop-opacity:0.3"/>
		</linearGradient>
		<path class="st67" d="M2431.5,432.2c-27.1,0-55.2-1.3-84.3-3.9c-74.3-6.7-154.3-21.6-244.5-45.5c-36.5-9.7-73.5-20.2-109.3-30.5
			c-116.7-33.3-237.3-67.8-364.9-78.2c-128.7-10.6-254.7,9.4-376.6,28.6c-39.8,6.3-81,12.8-121.5,18.1
			c-110.5,14.5-200.8,20.8-284,19.7c-106.8-1.4-197.6-15-277.6-41.5l0.2-0.5c80,26.5,170.8,40.1,277.5,41.5
			c83.3,1.1,173.5-5.2,284-19.7c40.5-5.3,81.7-11.8,121.5-18.1c121.9-19.3,247.9-39.2,376.7-28.6c127.6,10.5,248.3,44.9,365,78.3
			c35.8,10.2,72.8,20.8,109.3,30.5c90.2,23.9,170.1,38.7,244.4,45.5c91.1,8.2,172.5,3.6,241.9-13.9l0.1,0.5
			C2542,426.3,2489.2,432.2,2431.5,432.2z"/>
	</g>
	<g>
		
			<linearGradient id="SVGID_68_" gradientUnits="userSpaceOnUse" x1="1057.9052" y1="779.7172" x2="1058.5713" y2="779.7172" gradientTransform="matrix(2013.9181 0 0 -173.7346 -2129625.75 135815.8125)">
			<stop  offset="0" style="stop-color:#307FE2;stop-opacity:0.3"/>
			<stop  offset="0.25" style="stop-color:#307FE2;stop-opacity:0.1"/>
			<stop  offset="0.5" style="stop-color:#307FE2;stop-opacity:0.3"/>
			<stop  offset="0.75" style="stop-color:#307FE2;stop-opacity:0.1"/>
			<stop  offset="1" style="stop-color:#307FE2;stop-opacity:0.3"/>
		</linearGradient>
		<path class="st68" d="M2423,439.1c-26.2,0-53.5-1.4-81.6-4.1c-74.2-7.2-154.1-23.3-244.3-49.4c-35.8-10.4-72.1-21.7-107.1-32.6
			c-117.1-36.5-238.1-74.2-366.4-84.8c-130.7-10.8-258.7,12.3-382.5,34.6c-38.4,6.9-78.2,14.1-117.3,20.1
			c-108.8,16.7-198,24.2-280.7,23.6c-49.7-0.4-96.9-3.9-140.3-10.4c-47.7-7.2-92.6-18.3-133.3-33l0.2-0.5
			c40.7,14.7,85.5,25.8,133.2,33c43.4,6.5,90.6,10,140.2,10.4c82.6,0.6,171.8-6.9,280.6-23.6c39.1-6,78.9-13.2,117.3-20.1
			c123.8-22.3,251.9-45.4,382.7-34.6c128.3,10.6,249.4,48.3,366.5,84.8c35.1,10.9,71.3,22.2,107.1,32.6
			c90.1,26.1,170,42.2,244.2,49.4c91.1,8.8,172.4,3.3,241.9-16.2l0.1,0.5C2535.5,432.3,2481.7,439.1,2423,439.1z"/>
	</g>
	<g>
		
			<linearGradient id="SVGID_69_" gradientUnits="userSpaceOnUse" x1="1057.9043" y1="779.7704" x2="1058.5702" y2="779.7704" gradientTransform="matrix(2007.3459 0 0 -186.4017 -2122671.75 145703.0469)">
			<stop  offset="0" style="stop-color:#307FE2;stop-opacity:0.3"/>
			<stop  offset="0.25" style="stop-color:#307FE2;stop-opacity:0.1"/>
			<stop  offset="0.5" style="stop-color:#307FE2;stop-opacity:0.3"/>
			<stop  offset="0.75" style="stop-color:#307FE2;stop-opacity:0.1"/>
			<stop  offset="1" style="stop-color:#307FE2;stop-opacity:0.3"/>
		</linearGradient>
		<path class="st69" d="M2415,446c-25.6,0-52.1-1.4-79.5-4.2c-74.2-7.6-154-25.1-244.1-53.4c-35.3-11.1-71.1-23.2-105.7-34.9
			c-117.2-39.6-238.4-80.6-367-91.3c-132.7-11-262.8,15.3-388.7,40.7c-37,7.5-75.2,15.2-112.9,21.9c-105.3,18.6-195.6,27.6-276,27.6
			c-0.5,0-0.9,0-1.4,0c-49.1-0.1-95.7-3.5-138.5-10.3c-47-7.5-91.2-19.2-131.2-34.9l0.2-0.5c40,15.7,84.1,27.4,131.1,34.9
			c42.8,6.8,89.3,10.3,138.4,10.3c80.7,0.1,171.4-8.9,277.3-27.6c37.7-6.6,75.9-14.4,112.9-21.9c125.9-25.5,256.1-51.8,388.8-40.7
			c128.7,10.6,249.9,51.6,367.2,91.3c34.6,11.7,70.4,23.8,105.7,34.9c90,28.3,169.8,45.7,244,53.3c91.1,9.4,172.4,3.1,241.9-18.5
			l0.2,0.5C2529,438.3,2474.5,446,2415,446z"/>
	</g>
	<g>
		
			<linearGradient id="SVGID_70_" gradientUnits="userSpaceOnUse" x1="1057.9033" y1="779.8168" x2="1058.5691" y2="779.8168" gradientTransform="matrix(2000.7499 0 0 -199.049 -2115692.5 155574.9062)">
			<stop  offset="0" style="stop-color:#307FE2;stop-opacity:0.3"/>
			<stop  offset="0.25" style="stop-color:#307FE2;stop-opacity:0.1"/>
			<stop  offset="0.5" style="stop-color:#307FE2;stop-opacity:0.3"/>
			<stop  offset="0.75" style="stop-color:#307FE2;stop-opacity:0.1"/>
			<stop  offset="1" style="stop-color:#307FE2;stop-opacity:0.3"/>
		</linearGradient>
		<path class="st70" d="M2407.2,452.9c-25,0-50.8-1.5-77.5-4.4c-74.2-8.1-154-26.8-243.8-57.3c-34.5-11.7-69.4-24.4-103.2-36.8
			c-117.7-42.9-239.5-87.3-369.1-98.1c-134.6-11.3-266.8,18.4-394.6,47c-35.6,8-72.5,16.2-108.7,23.5
			c-104.4,20.7-193.9,31-273.9,31.3c-48.4,0.2-94.4-3.3-136.5-10.3c-46.3-7.8-89.8-20.1-129.1-36.7l0.2-0.5
			c39.3,16.6,82.7,28.9,129,36.7c42.1,7.1,88.1,10.5,136.4,10.3c79.9-0.4,169.5-10.6,273.8-31.3c36.2-7.2,73.1-15.5,108.7-23.5
			c127.9-28.7,260.1-58.3,394.8-47.1c129.7,10.8,251.4,55.2,369.2,98.1c33.8,12.3,68.7,25,103.2,36.7
			c89.8,30.5,169.6,49.2,243.7,57.3c91,9.9,172.4,2.9,241.8-20.9l0.2,0.5C2522.5,444.4,2467.4,452.9,2407.2,452.9z"/>
	</g>
	<g>
		
			<linearGradient id="SVGID_71_" gradientUnits="userSpaceOnUse" x1="1057.9026" y1="779.8578" x2="1058.568" y2="779.8578" gradientTransform="matrix(1994.2561 0 0 -211.7935 -2108821.5 165522.4219)">
			<stop  offset="0" style="stop-color:#307FE2;stop-opacity:0.3"/>
			<stop  offset="0.25" style="stop-color:#307FE2;stop-opacity:0.1"/>
			<stop  offset="0.5" style="stop-color:#307FE2;stop-opacity:0.3"/>
			<stop  offset="0.75" style="stop-color:#307FE2;stop-opacity:0.1"/>
			<stop  offset="1" style="stop-color:#307FE2;stop-opacity:0.3"/>
		</linearGradient>
		<path class="st71" d="M2400.6,459.7c-24.7,0-50.4-1.5-76.7-4.6c-74-8.5-153.7-28.6-243.6-61.2c-34.4-12.5-69.3-26.1-103-39.3
			c-117.5-45.9-238.9-93.4-368.4-104.3c-61.3-5.1-127.5-1.7-202.3,10.4c-66.7,10.8-133.8,27.3-198.6,43.3
			c-34.2,8.4-69.5,17.1-104.3,24.9c-103,22.9-191.5,34.4-270.6,35.3c-47.8,0.5-93.1-2.9-134.6-10.3c-45.6-8-88.3-21-126.9-38.6
			l0.2-0.5c38.5,17.6,81.2,30.5,126.8,38.6c41.5,7.3,86.8,10.8,134.6,10.2c79-0.9,167.5-12.4,270.5-35.3
			c34.8-7.7,70.1-16.4,104.3-24.9c130-32,264.3-65.1,401.1-53.7c129.5,10.9,251,58.4,368.5,104.3c33.7,13.2,68.6,26.8,103,39.3
			c89.8,32.7,169.5,52.7,243.5,61.2c43.5,5,85.1,5.9,123.6,2.6c42.1-3.6,81.9-12.3,118.2-25.8l0.2,0.5
			c-36.3,13.5-76.1,22.2-118.3,25.8C2432.4,459.1,2416.7,459.7,2400.6,459.7z"/>
	</g>
	<g>
		
			<linearGradient id="SVGID_72_" gradientUnits="userSpaceOnUse" x1="1057.9016" y1="779.8944" x2="1058.567" y2="779.8944" gradientTransform="matrix(1987.5541 0 0 -224.5746 -2101730 175498.5312)">
			<stop  offset="0" style="stop-color:#307FE2;stop-opacity:0.3"/>
			<stop  offset="0.25" style="stop-color:#307FE2;stop-opacity:0.1"/>
			<stop  offset="0.5" style="stop-color:#307FE2;stop-opacity:0.3"/>
			<stop  offset="0.75" style="stop-color:#307FE2;stop-opacity:0.1"/>
			<stop  offset="1" style="stop-color:#307FE2;stop-opacity:0.3"/>
		</linearGradient>
		<path class="st72" d="M2393.3,466.6c-24.3,0-49.5-1.6-75.4-4.7c-74-9-153.6-30.3-243.4-65.2c-34.2-13.3-68.7-27.7-102.2-41.7
			c-117.4-49-238.9-99.8-368.6-110.7c-62.2-5.3-129.4-1.2-205.4,12.3c-67.7,12.1-135.9,30.4-201.8,48.1c-32.7,8.8-66.5,17.8-99.7,26
			c-101.7,25-189.2,37.8-267.3,39.2c-47.2,0.8-91.8-2.6-132.7-10.2c-44.9-8.3-86.9-21.9-124.8-40.4l0.2-0.5
			c37.8,18.5,79.7,32.1,124.6,40.4c40.9,7.6,85.5,11,132.6,10.2c78.1-1.3,165.5-14.2,267.2-39.1c33.2-8.2,67-17.2,99.7-26
			c65.9-17.7,134.1-36,201.9-48.1c76.1-13.5,143.3-17.6,205.5-12.3c129.8,11,251.3,61.7,368.7,110.8c33.4,14,68,28.4,102.1,41.6
			c89.8,34.8,169.4,56.2,243.3,65.2c43.5,5.3,85.1,6.1,123.6,2.5c42.1-4,81.9-13.4,118.1-28l0.2,0.5c-36.3,14.6-76.1,24-118.3,28
			C2426,465.9,2409.9,466.6,2393.3,466.6z"/>
	</g>
	<g>
		
			<linearGradient id="SVGID_73_" gradientUnits="userSpaceOnUse" x1="1057.9008" y1="779.9268" x2="1058.5659" y2="779.9268" gradientTransform="matrix(1980.9819 0 0 -237.2701 -2094775.875 185407.9375)">
			<stop  offset="0" style="stop-color:#307FE2;stop-opacity:0.3"/>
			<stop  offset="0.25" style="stop-color:#307FE2;stop-opacity:0.1"/>
			<stop  offset="0.5" style="stop-color:#307FE2;stop-opacity:0.3"/>
			<stop  offset="0.75" style="stop-color:#307FE2;stop-opacity:0.1"/>
			<stop  offset="1" style="stop-color:#307FE2;stop-opacity:0.3"/>
		</linearGradient>
		<path class="st73" d="M2386.5,473.5c-24,0-48.9-1.6-74.5-4.9c-73.9-9.5-153.4-32.1-243.1-69.1c-34-14-68.5-29.3-101.8-44.1
			c-117.3-52.1-238.5-106-368.3-116.9c-63.2-5.4-131.5-0.7-208.8,14.3c-68.9,13.4-138.2,33.6-205.2,53c-31,9-63.1,18.4-94.7,26.9
			c-100.7,27.1-187,41.1-264,43c-46.5,1.1-90.5-2.3-130.8-10.1c-44.2-8.6-85.5-22.8-122.6-42.3l0.2-0.5
			c37.1,19.4,78.3,33.6,122.5,42.2c40.2,7.8,84.2,11.2,130.7,10.1c76.9-1.9,163.2-15.9,263.9-42.9c31.5-8.5,63.6-17.8,94.7-26.9
			c67-19.5,136.3-39.7,205.3-53.1c77.4-15.1,145.7-19.7,208.9-14.3c129.8,10.9,251.1,64.8,368.4,117c33.3,14.8,67.7,30.1,101.8,44.1
			c89.7,37,169.1,59.6,243,69c43.5,5.6,85.1,6.4,123.6,2.5c42.2-4.3,81.9-14.4,118.2-30.1l0.2,0.5c-36.3,15.7-76.1,25.8-118.3,30.1
			C2419.8,472.7,2403.4,473.5,2386.5,473.5z"/>
	</g>
	<g>
		
			<linearGradient id="SVGID_74_" gradientUnits="userSpaceOnUse" x1="1057.9" y1="779.9562" x2="1058.5649" y2="779.9562" gradientTransform="matrix(1974.4109 0 0 -250.1123 -2087823.125 195431.8438)">
			<stop  offset="0" style="stop-color:#307FE2;stop-opacity:0.3"/>
			<stop  offset="0.25" style="stop-color:#307FE2;stop-opacity:0.1"/>
			<stop  offset="0.5" style="stop-color:#307FE2;stop-opacity:0.3"/>
			<stop  offset="0.75" style="stop-color:#307FE2;stop-opacity:0.1"/>
			<stop  offset="1" style="stop-color:#307FE2;stop-opacity:0.3"/>
		</linearGradient>
		<path class="st74" d="M2379.4,480.5c-23.6,0-48.1-1.7-73.1-5.1c-73.9-9.9-153.4-33.8-243-73.1c-33.6-14.7-67.6-30.7-100.5-46.2
			c-58.6-27.6-119.3-56.2-180.3-78.7c-68.5-25.2-130.2-39.9-188.5-44.9c-64.1-5.5-133.5-0.2-212.2,16.4
			c-70,14.8-140.5,36.8-208.6,58.2c-29.4,9.2-59.8,18.7-89.7,27.5c-99.4,29.2-184.7,44.5-260.7,46.9c-45.9,1.4-89.3-2-128.9-10.1
			c-43.5-8.9-84.1-23.7-120.4-44.2l0.3-0.5c36.3,20.4,76.8,35.2,120.3,44.1c39.6,8.1,82.9,11.5,128.8,10
			c76-2.3,161.2-17.7,260.6-46.8c29.8-8.8,60.3-18.3,89.7-27.5c68.1-21.3,138.6-43.4,208.6-58.2c78.7-16.6,148.1-22,212.3-16.4
			c58.4,5,120.1,19.7,188.7,45c61.1,22.5,121.7,51.1,180.4,78.7c32.9,15.5,66.9,31.5,100.4,46.2c89.5,39.2,169,63.1,242.8,73
			c43.5,5.8,85,6.6,123.5,2.3c42.1-4.7,81.9-15.6,118.1-32.4l0.2,0.5c-36.3,16.8-76.1,27.7-118.3,32.4
			C2413.5,479.6,2396.7,480.5,2379.4,480.5z"/>
	</g>
</g>
</svg>
